<?xml version="1.0" standalone="no"?>
<!DOCTYPE svg PUBLIC "-//W3C//DTD SVG 20010904//EN"
 "http://www.w3.org/TR/2001/REC-SVG-20010904/DTD/svg10.dtd">
<svg version="1.0" xmlns="http://www.w3.org/2000/svg"
 width="191.000000pt" height="192.000000pt" viewBox="0 0 191.000000 192.000000"
 preserveAspectRatio="xMidYMid meet">

<g transform="translate(0.000000,192.000000) scale(0.100000,-0.100000)"
fill="#000000" stroke="none">
<path d="M798 1906 c-212 -38 -383 -130 -536 -291 -164 -170 -248 -370 -259
-615 -4 -101 -1 -143 15 -220 74 -360 321 -628 677 -736 82 -26 104 -28 255
-28 178 -1 242 11 383 70 264 111 477 364 549 650 29 115 31 332 5 436 -90
362 -357 632 -709 718 -107 27 -279 34 -380 16z m5 -513 l14 -27 138 0 137 -1
14 28 c17 32 28 33 115 8 125 -36 153 -53 193 -119 91 -151 139 -320 140 -500
1 -120 0 -124 -24 -142 -38 -30 -174 -99 -233 -119 -60 -21 -50 -27 -100 56
l-19 32 46 23 c43 20 59 38 36 38 -5 0 -45 -12 -87 -27 -71 -25 -91 -27 -218
-27 -127 0 -147 2 -218 27 -84 29 -97 32 -97 18 0 -5 20 -18 45 -30 51 -24 50
-28 -2 -98 l-24 -32 -52 20 c-73 29 -163 75 -215 111 l-45 31 6 131 c8 188 47
323 139 483 41 71 42 72 112 97 150 54 180 56 199 19z"/>
<path d="M708 1024 c-36 -19 -58 -63 -58 -115 0 -81 95 -138 158 -93 74 51 66
177 -13 210 -42 17 -53 17 -87 -2z"/>
<path d="M1108 1024 c-36 -19 -58 -63 -58 -115 0 -81 95 -138 158 -93 74 51
66 177 -13 210 -42 17 -53 17 -87 -2z"/>
</g>
</svg>
