<?xml version="1.0" standalone="no"?>
<!DOCTYPE svg PUBLIC "-//W3C//DTD SVG 20010904//EN"
 "http://www.w3.org/TR/2001/REC-SVG-20010904/DTD/svg10.dtd">
<svg version="1.0" xmlns="http://www.w3.org/2000/svg"
 width="692.000000pt" height="936.000000pt" viewBox="0 0 692.000000 936.000000"
 preserveAspectRatio="xMidYMid meet">

<g transform="translate(0.000000,936.000000) scale(0.100000,-0.100000)"
fill="#000000" stroke="none">
<path d="M2907 8196 c-361 -754 -551 -1163 -556 -1194 -5 -32 5 -167 31 -417
45 -445 46 -492 14 -560 -15 -33 -149 -194 -385 -465 -200 -228 -376 -437
-392 -465 -16 -27 -36 -72 -44 -100 -25 -84 -147 -983 -143 -1051 3 -45 14
-82 46 -148 23 -49 36 -86 30 -83 -7 3 -217 93 -467 201 -250 108 -455 195
-457 194 -1 -2 11 -79 27 -173 98 -573 250 -1188 434 -1754 74 -229 89 -263
137 -307 18 -17 424 -324 902 -682 551 -413 896 -665 945 -690 85 -44 175 -75
268 -93 93 -17 320 -6 408 20 173 52 200 70 1110 761 473 359 879 671 903 694
23 22 52 60 63 83 14 29 109 502 289 1436 147 765 267 1393 266 1394 -4 4
-694 -402 -721 -425 -57 -47 -90 -106 -136 -242 -40 -116 -47 -131 -52 -105
-4 17 -117 689 -252 1495 -135 806 -247 1468 -248 1472 -1 4 -182 -242 -402
-547 -219 -305 -400 -553 -401 -552 -1 1 22 85 52 187 62 208 68 259 37 313
-12 20 -172 199 -355 399 -183 200 -340 374 -349 388 -45 72 -44 39 -49 1129
l-5 1034 -548 -1147z m804 -4302 c427 -73 793 -340 993 -724 107 -205 148
-385 127 -550 -55 -430 -454 -743 -1046 -821 -133 -17 -433 -6 -560 21 -222
47 -446 141 -582 244 -40 30 -73 52 -73 48 0 -16 100 -160 144 -209 102 -113
305 -238 474 -292 320 -103 704 -97 1040 15 109 37 276 116 372 178 30 19 56
33 58 31 10 -9 -101 -158 -177 -238 -194 -204 -448 -344 -731 -404 -120 -25
-411 -25 -530 0 -304 64 -562 216 -774 456 -243 276 -356 633 -286 906 66 257
271 474 572 606 302 132 675 168 1021 99 207 -42 438 -139 569 -238 91 -68 92
-69 73 -31 -62 121 -219 282 -353 363 -143 85 -318 146 -512 178 -125 20 -396
15 -532 -10 -207 -39 -428 -124 -614 -237 -86 -52 -86 -46 2 72 208 279 534
481 865 537 118 20 344 20 460 0z"/>
<path d="M3654 2913 c4 -9 11 -49 17 -89 10 -72 0 -204 -20 -257 -5 -12 -11
-35 -15 -50 l-7 -29 31 19 c52 30 119 110 152 179 24 52 31 79 32 137 l1 71
-70 17 c-95 23 -129 24 -121 2z"/>
<path d="M2945 2802 c-88 -47 -206 -128 -267 -185 -76 -69 -68 -99 48 -194
212 -173 462 -270 725 -280 270 -11 504 55 733 209 104 69 196 157 196 186 0
31 -66 99 -163 168 -87 62 -232 142 -240 134 -3 -3 1 -34 10 -70 20 -86 7
-188 -36 -275 -72 -146 -269 -264 -442 -265 -61 0 -184 32 -250 66 -67 34
-158 120 -192 182 -53 98 -69 211 -43 310 9 36 10 52 2 52 -6 0 -42 -17 -81
-38z"/>
<path d="M1863 5853 c-18 -7 -16 -50 2 -57 24 -9 45 4 45 29 0 18 -22 40 -33
34 -1 0 -8 -3 -14 -6z"/>
<path d="M5640 5075 c-10 -12 -10 -18 0 -30 20 -25 55 -15 55 15 0 30 -35 40
-55 15z"/>
<path d="M5585 4895 c-14 -13 -25 -36 -25 -50 0 -28 40 -75 64 -75 30 0 65 23
76 50 9 22 8 34 -4 58 -25 49 -72 56 -111 17z"/>
<path d="M1714 1138 c-12 -40 45 -60 60 -21 4 9 1 22 -5 29 -17 21 -47 17 -55
-8z"/>
<path d="M1750 930 c-43 -43 -12 -123 48 -123 45 0 72 28 72 74 0 28 -6 42
-22 53 -31 22 -74 20 -98 -4z"/>
</g>
</svg>
