<?xml version="1.0" standalone="no"?>
<!DOCTYPE svg PUBLIC "-//W3C//DTD SVG 20010904//EN"
 "http://www.w3.org/TR/2001/REC-SVG-20010904/DTD/svg10.dtd">
<svg version="1.0" xmlns="http://www.w3.org/2000/svg"
 width="191.000000pt" height="192.000000pt" viewBox="0 0 191.000000 192.000000"
 preserveAspectRatio="xMidYMid meet">

<g transform="translate(0.000000,192.000000) scale(0.100000,-0.100000)"
fill="#000000" stroke="none">
<path d="M810 1908 c-86 -12 -229 -61 -309 -104 -192 -106 -362 -298 -435
-494 -43 -114 -57 -182 -63 -310 -4 -101 -1 -143 15 -220 74 -359 322 -628
677 -736 82 -26 104 -28 255 -28 142 -1 176 2 243 22 220 63 392 177 518 344
299 398 255 936 -104 1274 -216 203 -503 294 -797 252z m603 -552 c4 -6 6 -40
3 -76 -9 -107 -113 -746 -125 -769 -15 -28 -52 -36 -97 -21 -40 13 -310 190
-356 233 -16 15 -28 35 -28 45 0 12 62 79 165 177 148 142 187 187 172 201 -9
9 -64 -24 -283 -172 -249 -168 -235 -164 -409 -106 -92 31 -111 41 -113 59 -2
14 5 27 20 37 13 8 138 62 278 119 140 58 338 140 440 182 102 43 208 86 235
96 50 18 83 16 98 -5z"/>
</g>
</svg>
