<?xml version="1.0" standalone="no"?>
<!DOCTYPE svg PUBLIC "-//W3C//DTD SVG 20010904//EN"
 "http://www.w3.org/TR/2001/REC-SVG-20010904/DTD/svg10.dtd">
<svg version="1.0" xmlns="http://www.w3.org/2000/svg"
 width="191.000000pt" height="192.000000pt" viewBox="0 0 191.000000 192.000000"
 preserveAspectRatio="xMidYMid meet">

<g transform="translate(0.000000,192.000000) scale(0.100000,-0.100000)"
fill="#000000" stroke="none">
<path d="M845 1913 c-225 -31 -429 -134 -581 -296 -208 -221 -300 -519 -249
-808 65 -372 316 -654 682 -766 81 -24 102 -27 258 -27 157 0 177 2 260 27
327 100 563 337 661 662 25 81 27 106 28 250 1 138 -2 172 -22 245 -29 106
-88 233 -146 314 -65 91 -210 224 -300 275 -176 100 -409 149 -591 124z m196
-642 c16 -20 18 -39 16 -151 -2 -137 4 -157 42 -145 26 8 108 130 146 218 20
45 37 70 50 73 11 3 72 3 135 2 l115 -3 -2 -33 c-1 -36 -21 -70 -118 -202 -34
-47 -65 -93 -68 -103 -5 -14 15 -41 81 -110 93 -98 123 -147 103 -171 -7 -8
-47 -15 -116 -20 -129 -8 -147 -1 -235 88 -35 36 -72 66 -82 66 -25 0 -48 -39
-48 -82 0 -74 -46 -91 -176 -67 -175 32 -303 164 -463 478 -65 127 -70 145
-45 155 20 8 188 8 208 0 9 -3 36 -47 61 -98 54 -109 113 -190 142 -194 18 -3
24 4 32 35 15 54 14 158 -3 197 -8 19 -24 37 -36 41 -11 4 -19 12 -17 18 7 24
72 37 166 34 84 -3 96 -5 112 -26z"/>
</g>
</svg>
