<?xml version="1.0" standalone="no"?>
<!DOCTYPE svg PUBLIC "-//W3C//DTD SVG 20010904//EN"
 "http://www.w3.org/TR/2001/REC-SVG-20010904/DTD/svg10.dtd">
<svg version="1.0" xmlns="http://www.w3.org/2000/svg"
 width="191.000000pt" height="192.000000pt" viewBox="0 0 191.000000 192.000000"
 preserveAspectRatio="xMidYMid meet">

<g transform="translate(0.000000,192.000000) scale(0.100000,-0.100000)"
fill="#000000" stroke="none">
<path d="M845 1913 c-225 -31 -429 -134 -581 -296 -208 -221 -300 -519 -249
-808 65 -372 316 -654 682 -766 81 -24 102 -27 258 -27 157 0 177 2 260 27
327 100 563 337 661 662 25 81 27 106 28 250 1 138 -2 172 -22 245 -29 106
-88 233 -146 314 -65 91 -210 224 -300 275 -176 100 -409 149 -591 124z m230
-488 c137 -36 250 -131 312 -262 34 -69 38 -88 41 -174 6 -149 -29 -248 -126
-351 -94 -100 -206 -148 -348 -148 -312 0 -538 292 -459 595 22 83 61 150 128
216 118 118 291 166 452 124z"/>
<path d="M878 1355 c-3 -3 22 -48 56 -99 34 -52 66 -102 72 -112 11 -18 15
-17 76 14 35 17 81 50 102 71 l38 39 -48 28 c-75 44 -142 63 -220 64 -39 0
-73 -2 -76 -5z"/>
<path d="M743 1300 c-56 -34 -114 -99 -144 -163 -43 -92 -44 -91 59 -83 48 3
127 13 175 22 76 14 88 19 84 34 -6 23 -127 210 -136 210 -3 0 -20 -9 -38 -20z"/>
<path d="M1220 1163 c-25 -24 -73 -58 -107 -76 l-62 -32 17 -35 17 -35 100 0
c55 -1 116 -4 136 -7 l37 -6 -5 41 c-8 58 -39 137 -65 167 l-23 26 -45 -43z"/>
<path d="M891 1009 c-83 -20 -224 -39 -288 -39 l-43 0 0 -38 c0 -55 24 -129
61 -187 l32 -50 16 25 c55 86 187 195 276 228 48 17 52 25 32 58 -12 20 -13
20 -86 3z"/>
<path d="M1129 914 c-13 -4 -11 -20 17 -117 18 -62 33 -122 34 -134 0 -33 10
-29 62 25 47 48 90 124 102 178 7 29 5 32 -26 38 -46 9 -170 16 -189 10z"/>
<path d="M944 856 c-108 -54 -239 -184 -219 -216 25 -40 194 -87 275 -75 46 6
110 24 110 30 0 39 -77 295 -89 295 -5 0 -39 -16 -77 -34z"/>
</g>
</svg>
