<?xml version="1.0" standalone="no"?>
<!DOCTYPE svg PUBLIC "-//W3C//DTD SVG 20010904//EN"
 "http://www.w3.org/TR/2001/REC-SVG-20010904/DTD/svg10.dtd">
<svg version="1.0" xmlns="http://www.w3.org/2000/svg"
 width="191.000000pt" height="192.000000pt" viewBox="0 0 191.000000 192.000000"
 preserveAspectRatio="xMidYMid meet">

<g transform="translate(0.000000,192.000000) scale(0.100000,-0.100000)"
fill="#000000" stroke="none">
<path d="M845 1913 c-225 -31 -429 -134 -581 -296 -208 -221 -300 -519 -249
-808 65 -372 316 -654 682 -766 81 -24 102 -27 258 -27 157 0 177 2 260 27
327 100 563 337 661 662 25 81 27 106 28 250 1 138 -2 172 -22 245 -29 106
-88 233 -146 314 -65 91 -210 224 -300 275 -176 100 -409 149 -591 124z m450
-642 c50 -22 101 -79 115 -128 7 -24 10 -101 8 -205 l-3 -166 -30 -44 c-18
-25 -49 -52 -75 -65 -43 -22 -53 -23 -356 -23 -306 0 -312 0 -355 23 -29 16
-54 40 -74 72 -30 48 -30 51 -33 206 -4 183 5 225 56 281 61 64 79 67 412 67
264 1 299 -1 335 -18z"/>
<path d="M847 1083 c-4 -3 -7 -60 -7 -125 0 -100 3 -120 16 -125 20 -7 256
107 251 122 -4 12 -224 135 -242 135 -6 0 -15 -3 -18 -7z"/>
</g>
</svg>
