<?xml version="1.0" encoding="UTF-8"?>
<!-- Generator: visioncortex VTracer 1.0.0-alpha.4 -->
<svg version="1.1" xmlns="http://www.w3.org/2000/svg" width="1280" height="1280">
<path d="M582,90c37,0,74,0,111,0c.33,.66,.66,1.32,1,2c6.33,.33,12.67,.67,19,1c0,.66,0,1.32,0,2c5.67,0,11.33,0,17,0c.33,.66,.66,1.32,1,2c4.67,0,9.33,0,14,0c-.33,.99-.66,1.98-1,3c.7-.02,1.4-.05,2.12-.07c.45-.01,.45-.01,2.76-.05c.45-.02,.45-.02,2.74-.08C754,100,754,100,756,102c2.16,.2,2.16,.2,4.63,.13c.81-.02,1.63-.04,2.47-.06c.31-.01,.31-.01,1.9-.07c-.33,.99-.66,1.98-1,3c4,0,8,0,12,0c0,.66,0,1.32,0,2c3.3,0,6.6,0,10,0c0,.66,0,1.32,0,2c2.31,.33,4.62,.66,7,1c0,.66,0,1.32,0,2c2.64,0,5.28,0,8,0c0,.99,0,1.98,0,3c2.31,0,4.62,0,7,0c0,.66,0,1.32,0,2c2.64,0,5.28,0,8,0c0,.33,0,.66,0,1c.42,.1,.42,.1,2.55,.62c1.1,.27,2.2,.54,3.33,.82c1.09,.26,2.18,.53,3.3,.81C828,121,828,121,830,122c0,.66,0,1.32,0,2c.68,.12,1.36,.25,2.06,.38c3.37,.71,6.64,1.65,9.94,2.62c0,.66,0,1.32,0,2c1.65,0,3.3,0,5,0c0,.66,0,1.32,0,2c2.31,0,4.62,0,7,0c0,.99,0,1.98,0,3c1.65,0,3.3,0,5,0c0,.66,0,1.32,0,2c1.65,0,3.3,0,5,0c0,.99,0,1.98,0,3c1.65,0,3.3,0,5,0c0,.66,0,1.32,0,2c1.98,0,3.96,0,6,0c.33,.66,.66,1.32,1,2c2.06,.63,2.06,.63,4,1c0,.66,0,1.32,0,2c1.65,0,3.3,0,5,0c.33,.66,.66,1.32,1,2c2.06,.63,2.06,.63,4,1c0,.66,0,1.32,0,2c.99,0,1.98,0,3,0c.33,.66,.66,1.32,1,2c2.06,.62,2.06,.62,4,1c0,.66,0,1.32,0,2c1.65,0,3.3,0,5,0c0,.66,0,1.32,0,2c1.65,0,3.3,0,5,0c0,.99,0,1.98,0,3c1.32,0,2.64,0,4,0c0,.66,0,1.32,0,2c.99,0,1.98,0,3,0c0,.66,0,1.32,0,2c.34,.04,.34,.04,2.06,.25c3.81,.97,6.58,2.71,9.94,4.75c0,.66,0,1.32,0,2c.83,.17,.83,.17,5,1c0,.66,0,1.32,0,2c.3,.07,.3,.07,1.81,.44c1.75,.45,3.48,.99,5.19,1.56c0,.99,0,1.98,0,3c1.32,0,2.64,0,4,0c0,.66,0,1.32,0,2c.62,.08,1.24,.17,1.88,.25c2.12,.75,2.12,.75,3.37,2.81c.25,.64,.5,1.28,.75,1.94c1.65,0,3.3,0,5,0c0,.99,0,1.98,0,3c.66,0,1.32,0,2,0c0,.66,0,1.32,0,2c1.32,0,2.64,0,4,0c.33,.66,.66,1.32,1,2c.99,.33,1.98,.66,3,1c0,.66,0,1.32,0,2c.66,0,1.32,0,2,0c0,.99,0,1.98,0,3c.74,.1,1.49,.21,2.25,.31c2.97,.75,4.52,1.62,6.75,3.69c.33,.99,.66,1.98,1,3c.99,0,1.98,0,3,0c0,.66,0,1.32,0,2c1.32,0,2.64,0,4,0c0,.66,0,1.32,0,2c.66,0,1.32,0,2,0c1.62,1.37,1.62,1.37,3,3c0,.66,0,1.32,0,2c.66,0,1.32,0,2,0c.33,.66,.66,1.32,1,2c1.32,.68,2.66,1.35,4,2c2.98,1.96,3.84,2.53,5,6c.99,.33,1.98,.66,3,1c.66,.33,1.32,.66,2,1c0,.99,0,1.98,0,3c.99,.33,1.98,.66,3,1c.66,.33,1.32,.66,2,1c0,.99,0,1.98,0,3c.66,0,1.32,0,2,0c0,.66,0,1.32,0,2c1.32,0,2.64,0,4,0c.33,.66,.66,1.32,1,2c.99,.33,1.98,.66,3,1c0,1.65,0,3.3,0,5c.99,0,1.98,0,3,0c0,.66,0,1.32,0,2c.99,0,1.98,0,3,0c1.86,1.57,2.91,2.82,4,5c-.33,.66-.66,1.32-1,2c.58,.08,1.16,.17,1.75,.25c2.9,.97,4.29,2.44,6.25,4.75c0,.66,0,1.32,0,2c.66,0,1.32,0,2,0c0,.99,0,1.98,0,3c.66,0,1.32,0,2,0c0,.66,0,1.32,0,2c.99,0,1.98,0,3,0c0,.99,0,1.98,0,3c.66,0,1.32,0,2,0c0,.66,0,1.32,0,2c.99,0,1.98,0,3,0c0,.99,0,1.98,0,3c.66,0,1.32,0,2,0c0,.66,0,1.32,0,2c.66,0,1.32,0,2,0c2.13,1.81,2.13,1.81,4,4c0,.99,0,1.98,0,3c.66,.33,1.32,.66,2,1c0,.66,0,1.32,0,2c.66,0,1.32,0,2,0c0,.66,0,1.32,0,2c.99,.33,1.98,.66,3,1c.69,2.06,.69,2.06,1,4c.99,0,1.98,0,3,0c0,1.65,0,3.3,0,5c.99,.33,1.98,.66,3,1c1.19,2.06,1.19,2.06,2,4c.99,0,1.98,0,3,0c.14,.6,.29,1.2,.44,1.81c.45,1.75,.99,3.48,1.56,5.19c.66,0,1.32,0,2,0c1.63,1.25,1.63,1.25,3,3c0,1.32,0,2.64,0,4c.66,0,1.32,0,2,0c0,.99,0,1.98,0,3c.99,0,1.98,0,3,0c0,1.65,0,3.3,0,5c.66,0,1.32,0,2,0c0,.66,0,1.32,0,2c.99,0,1.98,0,3,0c0,1.65,0,3.3,0,5c.66,0,1.32,0,2,0c0,.99,0,1.98,0,3c.99,0,1.98,0,3,0c1.46,2.65,2,3.89,2,7c.99,0,1.98,0,3,0c.66,2.31,1.32,4.62,2,7c.66,0,1.32,0,2,0c2.03,3.73,3,5.67,3,10c.66,0,1.32,0,2,0c2,3,2,3,2,7c.99,0,1.98,0,3,0c0,1.65,0,3.3,0,5c.66,0,1.32,0,2,0c0,1.65,0,3.3,0,5c.99,0,1.98,0,3,0c0,1.65,0,3.3,0,5c.66,0,1.32,0,2,0c0,1.65,0,3.3,0,5c.99,0,1.98,0,3,0c0,.99,0,1.98,0,3c.66,.33,1.32,.66,2,1c0,1.65,0,3.3,0,5c.99,.33,1.98,.66,3,1c0,.99,0,1.98,0,3c.66,.33,1.32,.66,2,1c0,1.65,0,3.3,0,5c.99,0,1.98,0,3,0c0,1.32,0,2.64,0,4c.66,.33,1.32,.66,2,1c0,1.65,0,3.3,0,5c.99,0,1.98,0,3,0c.14,.8,.29,1.61,.44,2.44C1143,421,1143,421,1144,422c.04,2,.04,4,0,6c.99,.33,1.98,.66,3,1c-.33,1.32-.66,2.64-1,4c.99,0,1.98,0,3,0c0,2.31,0,4.62,0,7c.66,0,1.32,0,2,0c3.43,7.29,3.43,7.29,3,12c.66,0,1.32,0,2,0c0,2.31,0,4.62,0,7c.66,0,1.32,0,2,0c0,2.64,0,5.28,0,8c.99,.33,1.98,.66,3,1c0,1.98,0,3.96,0,6c.66,0,1.32,0,2,0c.05,.64,.1,1.28,.15,1.93c.07,.83,.15,1.66,.23,2.51c.06,.82,.13,1.64,.21,2.49c.13,.69,.27,1.37,.41,2.07c.66,.33,1.32,.66,2,1c0,1.98,0,3.96,0,6c.66,.33,1.32,.66,2,1c.37,2.33,.71,4.66,1,7c.33,.33,.66,.66,1,1c.07,1.85,.08,3.71,.06,5.56c-.01,1.01-.02,2.03-.02,3.07c-.02,.78-.03,1.56-.04,2.37c.99,.33,1.98,.66,3,1c0,2.97,0,5.94,0,9c.66,0,1.32,0,2,0c0,4,0,8,0,12c.99,.33,1.98,.66,3,1c.06,.78,.12,1.56,.18,2.37c.09,1.01,.17,2.02,.26,3.07c.08,1.01,.16,2.02,.24,3.06c.32,2.5,.32,2.5,1.32,3.5c.24,3.43,.4,6.84,.52,10.27c.09,1.92,.28,3.83,.48,5.73c.66,.33,1.32,.66,2,1c.01,.32,.01,.32,.08,1.91c.11,2.84,.23,5.69,.36,8.53c.04,.99,.08,1.98,.12,3.01c.04,.94,.08,1.89,.12,2.86c.04,.87,.08,1.75,.11,2.65C1184,583,1184,583,1185,584c.13,1.54,.19,3.09,.22,4.64c.01,.51,.01,.51,.07,3.04c.01,.55,.01,.55,.06,3.35c.03,1.15,.05,2.3,.07,3.49c.08,3.8,.14,7.61,.21,11.42c.01,.64,.01,.64,.06,3.91c.45,26.06,.07,52.09-.69,78.15c-.66,0-1.32,0-2,0c0,7.33,0,14.67,0,22c-.99,0-1.98,0-3,0c0,5,0,10,0,15c-.66,0-1.32,0-2,0c0,4.67,0,9.33,0,14c-.99,.33-1.98,.66-3,1c.01,.64,.02,1.28,.04,1.93c0,.42,0,.42,.02,2.51c.01,.82,.03,1.64,.04,2.49c-.1,2.07-.1,2.07-1.1,3.07c-.23,1.85-.41,3.7-.56,5.56c-.09,1.01-.17,2.03-.26,3.07c-.03,.39-.03,.39-.18,2.37c-.99,0-1.98,0-3,0c0,3.3,0,6.6,0,10c-.66,0-1.32,0-2,0c0,3.3,0,6.6,0,10c-.99,0-1.98,0-3,0c.33,1.98,.66,3.96,1,6c-.99,.33-1.98,.66-3,1c0,3.3,0,6.6,0,10c-.66,0-1.32,0-2,0c0,2.31,0,4.62,0,7c-.99,0-1.98,0-3,0c0,2.31,0,4.62,0,7c-.66,0-1.32,0-2,0c.06,1.03,.12,2.06,.19,3.13c-.21,4.2-1.21,6.21-3.19,9.87c-.77,2.32-1.39,4.63-2,7c-.66,0-1.32,0-2,0c.02,.37,.02,.37,.13,2.25c-.14,2.89-.73,4.27-2.13,6.75c-.33,.99-.66,1.98-1,3c-.66,0-1.32,0-2,0c0,1.65,0,3.3,0,5c-.99,0-1.98,0-3,0c.33,1.98,.66,3.96,1,6c-.99,.33-1.98,.66-3,1c0,1.65,0,3.3,0,5c-.66,.33-1.32,.66-2,1c-.62,2.06-.62,2.06-1,4c-.66,0-1.32,0-2,0c0,1.65,0,3.3,0,5c-.66,.33-1.32,.66-2,1c-.63,2.06-.63,2.06-1,4c-.66,0-1.32,0-2,0c0,1.65,0,3.3,0,5c-.66,0-1.32,0-2,0c-.33,1.65-.66,3.3-1,5c-.66,0-1.32,0-2,0c0,1.32,0,2.64,0,4c-.66,0-1.32,0-2,0c0,1.65,0,3.3,0,5c-.99,0-1.98,0-3,0c0,1.65,0,3.3,0,5c-.66,0-1.32,0-2,0c-.33,1.65-.66,3.3-1,5c-.66,0-1.32,0-2,0c0,.66,0,1.32,0,2c-.66,0-1.32,0-2,0c0,1.65,0,3.3,0,5c-.66,.33-1.32,.66-2,1c-.62,2.06-.62,2.06-1,4c-.66,0-1.32,0-2,0c0,.66,0,1.32,0,2c-.66,0-1.32,0-2,0c0,1.65,0,3.3,0,5c-.66,0-1.32,0-2,0c-.33,1.65-.66,3.3-1,5c-.66,0-1.32,0-2,0c-.66,2.31-1.32,4.62-2,7c-.99,0-1.98,0-3,0c-.78,2.33-1.42,4.61-2,7c-.99,0-1.98,0-3,0c0,.99,0,1.98,0,3c-.66,0-1.32,0-2,0c0,1.32,0,2.64,0,4c-1.37,1.75-1.37,1.75-3,3c-.66,0-1.32,0-2,0c0,.99,0,1.98,0,3c-.66,.33-1.32,.66-2,1c-.34,1.33-.68,2.66-1,4c-.66,.66-1.32,1.32-2,2c-.99,0-1.98,0-3,0c-1,3-1,3-1.37,5c-.75,2.39-1.69,3.45-3.63,5c-.66,0-1.32,0-2,0c0,.66,0,1.32,0,2c-.66,0-1.32,0-2,0c-.04,.36-.04,.36-.25,2.19c-.91,3.4-2.35,5.26-4.75,7.81c-.66,0-1.32,0-2,0c0,.66,0,1.32,0,2c-.99,0-1.98,0-3,0c-.33,.99-.66,1.98-1,3c-.52,.47-1.03,.95-1.56,1.44C1052,997,1052,997,1052,1001c-.99,0-1.98,0-3,0c0,.66,0,1.32,0,2c-1.37,1.63-1.37,1.63-3,3c-.66,0-1.32,0-2,0c0,.66,0,1.32,0,2c-1.37,1.63-1.37,1.63-3,3c-.66,0-1.32,0-2,0c0,.66,0,1.32,0,2c-1.37,1.63-1.37,1.63-3,3c-.66,0-1.32,0-2,0c0,.66,0,1.32,0,2c-.66,0-1.32,0-2,0c-.33,.99-.66,1.98-1,3c-.66,0-1.32,0-2,0c0,.66,0,1.32,0,2c-.66,0-1.32,0-2,0c-.33,.99-.66,1.98-1,3c-.66,0-1.32,0-2,0c0,.66,0,1.32,0,2c-.66,0-1.32,0-2,0c0,.66,0,1.32,0,2c-.66,0-1.32,0-2,0c0,.66,0,1.32,0,2c-.66,0-1.32,0-2,0c-.33,.99-.66,1.98-1,3c-.66,0-1.32,0-2,0c0,.66,0,1.32,0,2c-.66,0-1.32,0-2,0c0,.99,0,1.98,0,3c-.99,0-1.98,0-3,0c0,.66,0,1.32,0,2c-.99,0-1.98,0-3,0c.33,.99,.66,1.98,1,3c-.99,0-1.98,0-3,0c0,.66,0,1.32,0,2c-.99,0-1.98,0-3,0c-.33,.99-.66,1.98-1,3c-.66,0-1.32,0-2,0c0,.66,0,1.32,0,2c-1.32,0-2.64,0-4,0c0,.66,0,1.32,0,2c-.66,0-1.32,0-2,0c0,.99,0,1.98,0,3c-.99,0-1.98,0-3,0c0,.66,0,1.32,0,2c-.66,0-1.32,0-2,0c0,.99,0,1.98,0,3c-.99,0-1.98,0-3,0c0,.66,0,1.32,0,2c-1.32,0-2.64,0-4,0c-.33,.99-.66,1.98-1,3c-.66,0-1.32,0-2,0c0,.66,0,1.32,0,2c-.66,0-1.32,0-2,0c-.33,.99-.66,1.98-1,3c-3,2-3,2-6,2c0,.66,0,1.32,0,2c-1.66,1.02-3.32,2.02-5,3c-.33,.66-.66,1.32-1,2c-1.32,0-2.64,0-4,0c0,.66,0,1.32,0,2c-1.31,1.63-1.31,1.63-3,3c-.99,0-1.98,0-3,0c0,.66,0,1.32,0,2c-1.32,0-2.64,0-4,0c0,.99,0,1.98,0,3c-.99,0-1.98,0-3,0c0,.66,0,1.32,0,2c-1.32,0-2.64,0-4,0c0,.99,0,1.98,0,3c-1.32,0-2.64,0-4,0c0,.66,0,1.32,0,2c-1.32,0-2.64,0-4,0c0,.99,0,1.98,0,3c-.99,0-1.98,0-3,0c0,.66,0,1.32,0,2c-1.32,0-2.64,0-4,0c0,.99,0,1.98,0,3c-1.32,0-2.64,0-4,0c-.33,.66-.66,1.32-1,2c-.99,0-1.98,0-3,0c0,.66,0,1.32,0,2c-.99,.33-1.98,.66-3,1c-.33,.66-.66,1.32-1,2c-1.65,0-3.3,0-5,0c0,.66,0,1.32,0,2c-2.31,1.32-4.62,2.64-7,4c0,.33,0,.66,0,1c-1.65,0-3.3,0-5,0c0,.66,0,1.32,0,2c-1.65,0-3.3,0-5,0c0,.99,0,1.98,0,3c-1.65,0-3.3,0-5,0c0,.66,0,1.32,0,2c-1.65,0-3.3,0-5,0c0,.66,0,1.32,0,2c-1.32,.66-2.64,1.32-4,2c0,.33,0,.66,0,1c-1.65,0-3.3,0-5,0c0,.66,0,1.32,0,2c-1.65,.33-3.3,.66-5,1c0,.66,0,1.32,0,2c-1.65,.33-3.3,.66-5,1c0,.33,0,.66,0,1c-.8,.12-1.61,.25-2.44,.38c-.84,.2-1.69,.41-2.56,.62c-.33,.66-.66,1.32-1,2c-1.98,0-3.96,0-6,0c0,.66,0,1.32,0,2c-1.65,.33-3.3,.66-5,1c0,.66,0,1.32,0,2c-2.31,0-4.62,0-7,0c0,.66,0,1.32,0,2c-1.65,.33-3.3,.66-5,1c0,.66,0,1.32,0,2c-2.64,0-5.28,0-8,0c0,.66,0,1.32,0,2c-2.31,0-4.62,0-7,0c0,.99,0,1.98,0,3c-2.31,0-4.62,0-7,0c0,.66,0,1.32,0,2c-1.98,0-3.96,0-6,0c0,.66,0,1.32,0,2c-2.96,1.48-5.74,1.06-9,1c0,.66,0,1.32,0,2c-2.31,0-4.62,0-7,0c0,.66,0,1.32,0,2c-2.97,0-5.94,0-9,0c0,.66,0,1.32,0,2c-2.64,0-5.28,0-8,0c0,.99,0,1.98,0,3c-3.3,0-6.6,0-10,0c0,.66,0,1.32,0,2c-4,0-8,0-12,0c0,.99,0,1.98,0,3c-4.33,0-8.67,0-13,0c0,.66,0,1.32,0,2c-4,0-8,0-12,0c-.33,.99-.66,1.98-1,3c-5,0-10,0-15,0c0,.66,0,1.32,0,2c-7.56,.93-15.02,1.14-22.63,1.13c-1.23,0-2.45,0-3.71,0c-3.33,.01-6.66,.01-9.99,0c-3.5,0-7,0-10.5,.01c-5.88,0-11.76,0-17.64-.01c-6.77-.01-13.54,0-20.31,0c-5.84,.01-11.68,.01-17.52,0c-3.48,0-6.95,0-10.43,.01c-3.88,0-7.76-.01-11.64-.01c-1.13,0-2.27,0-3.44,.01c-6.46-.02-12.78-.35-19.19-1.14c0-.66,0-1.32,0-2c-5.33,0-10.67,0-16,0c0-.99,0-1.98,0-3c-4.33,0-8.67,0-13,0c0-.66,0-1.32,0-2c-4,0-8,0-12,0c0-.99,0-1.98,0-3c-4,0-8,0-12,0c0-.66,0-1.32,0-2c-3.3,0-6.6,0-10,0c0-.99,0-1.98,0-3c-1.13,.02-2.27,.04-3.44,.06C494,1168,494,1168,493,1167c-1.51-.23-3.04-.41-4.56-.56c-.42-.04-.42-.04-2.51-.26c-.32-.03-.32-.03-1.93-.18c0-.66,0-1.32,0-2c-.51,.02-.51,.02-3.06,.13c-5.36-.18-9.47-1.15-13.94-4.13c-1.66-.38-3.32-.73-5-1c0-.66,0-1.32,0-2c-2.31,0-4.62,0-7,0c0-.99,0-1.98,0-3c-2.31,0-4.62,0-7,0c0-.66,0-1.32,0-2c-2.31,0-4.62,0-7,0c-.33-.66-.66-1.32-1-2c-2.56-.62-2.56-.62-5-1c0-.66,0-1.32,0-2c-1.98,0-3.96,0-6,0c-.33-.66-.66-1.32-1-2c-2.79-1.35-5.18-2.03-8.25-2.5c-.91-.16-1.81-.33-2.75-.5c-.33-.66-.66-1.32-1-2c-2.06-.62-2.06-.62-4-1c0-.66,0-1.32,0-2c-1.65,0-3.3,0-5,0c-.33-.66-.66-1.32-1-2c-2.56-.62-2.56-.62-5-1c0-.66,0-1.32,0-2c-1.65,0-3.3,0-5,0c0-.99,0-1.98,0-3c-1.65,0-3.3,0-5,0c0-.66,0-1.32,0-2c-1.32,0-2.64,0-4,0c0-.66,0-1.32,0-2c-1.65,0-3.3,0-5,0c0-.99,0-1.98,0-3c-1.65,0-3.3,0-5,0c0-.66,0-1.32,0-2c-.36,.04-.36,.04-2.19,.25c-3.66-.33-5.11-1.84-7.81-4.25c-.66-.33-1.32-.66-2-1c0-.66,0-1.32,0-2c-1.65,0-3.3,0-5,0c-.33-.66-.66-1.32-1-2c-.99,0-1.98,0-3,0c0-.99,0-1.98,0-3c-.99,0-1.98,0-3,0c-.33-.66-.66-1.32-1-2c-1.32,0-2.64,0-4,0c0-.99,0-1.98,0-3c-1.32,0-2.64,0-4,0c0-.66,0-1.32,0-2c-.99,0-1.98,0-3,0c0-.99,0-1.98,0-3c-1.32,0-2.64,0-4,0c0-.66,0-1.32,0-2c-.29-.06-.29-.06-1.75-.37c-2.27-.64-4.18-1.52-6.25-2.63c0-.66,0-1.32,0-2c-.99,0-1.98,0-3,0c0-.99,0-1.98,0-3c-1.32,0-2.64,0-4,0c0-.66,0-1.32,0-2c-.99,0-1.98,0-3,0c0-.99,0-1.98,0-3c-.99,0-1.98,0-3,0c0-.66,0-1.32,0-2c-1.32,0-2.64,0-4,0c-1.75-1.37-1.75-1.37-3-3c0-.66,0-1.32,0-2c-.99,0-1.98,0-3,0c0-.66,0-1.32,0-2c-.6-.12-1.2-.25-1.81-.37C302,1073,302,1073,299,1071c0-.66,0-1.32,0-2c-.66,0-1.32,0-2,0c0-.66,0-1.32,0-2c-.99-.33-1.98-.66-3-1c0-.66,0-1.32,0-2c-1.32,0-2.64,0-4,0c0-.66,0-1.32,0-2c-.99,0-1.98,0-3,0c0-.99,0-1.98,0-3c-.66,0-1.32,0-2,0c0-.66,0-1.32,0-2c-.99,0-1.98,0-3,0c0-.99,0-1.98,0-3c-.66,0-1.32,0-2,0c0-.66,0-1.32,0-2c-1.65,0-3.3,0-5,0c-.66-1.65-1.32-3.3-2-5c-.99,0-1.98,0-3,0c0-.66,0-1.32,0-2c-.66,0-1.32,0-2,0c0-.99,0-1.98,0-3c-.99,0-1.98,0-3,0c0-.66,0-1.32,0-2c-.66,0-1.32,0-2,0c0-.99,0-1.98,0-3c-.99,0-1.98,0-3,0c0-.66,0-1.32,0-2c-.66,0-1.32,0-2,0c-1.63-1.37-1.63-1.37-3-3c0-.66,0-1.32,0-2c-.66,0-1.32,0-2,0c0-.66,0-1.32,0-2c-.64-.27-1.28-.54-1.94-.81C249,1026,249,1026,248,1023c-.66,0-1.32,0-2,0c0-.66,0-1.32,0-2c-.66,0-1.32,0-2,0c-1.63-1.38-1.63-1.38-3-3c0-.66,0-1.32,0-2c-.66,0-1.32,0-2,0c-1.63-1.38-1.63-1.38-3-3c0-.66,0-1.32,0-2c-.66,0-1.32,0-2,0c0-.99,0-1.98,0-3c-.99,0-1.98,0-3,0c0-.66,0-1.32,0-2c-.66,0-1.32,0-2,0c0-.99,0-1.98,0-3c-.8-.25-1.61-.49-2.44-.75c-.42-.21-.42-.21-2.56-1.25c-.56-1.94-.56-1.94-1-4c-1.33-1.01-2.66-2.01-4-3c0-.99,0-1.98,0-3c-.99,0-1.98,0-3,0c0-.66,0-1.32,0-2c-.66,0-1.32,0-2,0c0-.99,0-1.98,0-3c-.66,0-1.32,0-2,0c-1.62-1.25-1.62-1.25-3-3c0-1.32,0-2.64,0-4c-.58-.23-1.15-.45-1.75-.69c-3.77-2.2-5.88-4.91-7-9.12c-.04-.36-.04-.36-.25-2.19c-.99,0-1.98,0-3,0c0-.66,0-1.32,0-2c-.66,0-1.32,0-2,0c-.12-.64-.25-1.28-.37-1.94c-.21-.68-.42-1.36-.63-2.06c-.66-.33-1.32-.66-2-1c0-.99,0-1.98,0-3c-.66,0-1.32,0-2,0c0-.66,0-1.32,0-2c-.99-.33-1.98-.66-3-1c0-1.32,0-2.64,0-4c-.66,0-1.32,0-2,0c0-.99,0-1.98,0-3c-.99,0-1.98,0-3,0c0-1.32,0-2.64,0-4c-.66-.33-1.32-.66-2-1c0-.66,0-1.32,0-2c-.99-.33-1.98-.66-3-1c-1-1.75-1-1.75-2-4c-1.53-2.67-2.82-4.82-5-7c-.12-2.62-.12-2.62,0-5c-.66,0-1.32,0-2,0c0-.66,0-1.32,0-2c-.99-.33-1.98-.66-3-1c0-1.32,0-2.64,0-4c-.99-.33-1.98-.66-3-1c.33-1.32,.66-2.64,1-4c-.99-.33-1.98-.66-3-1c0-.66,0-1.32,0-2c-.66,0-1.32,0-2,0c0-1.32,0-2.64,0-4c-.66,0-1.32,0-2,0c-.33-1.65-.66-3.3-1-5c-.66,0-1.32,0-2,0c0-1.65,0-3.3,0-5c-.66,0-1.32,0-2,0c0-1.32,0-2.64,0-4c-.99-.33-1.98-.66-3-1c0-.99,0-1.98,0-3c-.66-.33-1.32-.66-2-1c0-1.65,0-3.3,0-5c-.66,0-1.32,0-2,0c-.12-.64-.25-1.28-.37-1.94c-.21-.68-.42-1.36-.63-2.06c-.66-.33-1.32-.66-2-1c0-1.65,0-3.3,0-5c-.66,0-1.32,0-2,0c0-1.65,0-3.3,0-5c-.99,0-1.98,0-3,0c0-1.65,0-3.3,0-5c-.66,0-1.32,0-2,0c0-2.31,0-4.62,0-7c-.99,0-1.98,0-3,0c0-1.65,0-3.3,0-5c-.66,0-1.32,0-2,0c0-1.65,0-3.3,0-5c-.66,0-1.32,0-2,0c-.33-2.31-.66-4.62-1-7c-.66,0-1.32,0-2,0c0-2.31,0-4.62,0-7c-.99-.33-1.98-.66-3-1c-2.76-3.63-2.14-7.65-2-12c-.99-.33-1.98-.66-3-1c0-1.98,0-3.96,0-6c-.66,0-1.32,0-2,0c0-2.64,0-5.28,0-8c-.66,0-1.32,0-2,0c-.07-.32-.07-.32-.4-1.93c-.18-.83-.36-1.66-.54-2.51c-.17-.82-.35-1.64-.52-2.49C110,792,110,792,109,791c-.04-2-.04-4,0-6c-.66,0-1.32,0-2,0c0-3.3,0-6.6,0-10c-.66,0-1.32,0-2,0c0-3.3,0-6.6,0-10c-.99,0-1.98,0-3,0c-.06-.78-.12-1.56-.18-2.37c-.09-1.01-.17-2.02-.26-3.07c-.08-1.01-.16-2.02-.24-3.06C101,754,101,754,100,753c-.07-1.52-.08-3.04-.06-4.56c.01-.83,.02-1.66,.02-2.51c.02-.63,.03-1.27,.04-1.93c-.66,0-1.32,0-2,0c-1.38-2.76-1.1-5.05-1.06-8.12c.01-1.1,.02-2.2,.02-3.33c.02-.84,.03-1.68,.04-2.55c-.66-.33-1.32-.66-2-1c-.33-5.67-.67-11.33-1-17c-.66-.33-1.32-.66-2-1c.01-1.22,.02-2.43,.04-3.68c0-1.59,.01-3.17,.02-4.76c.01-.8,.02-1.6,.03-2.43c.01-2.04-.04-4.09-.09-6.13c-.33-.33-.66-.66-1-1c-.1-1.43-.13-2.86-.13-4.29c0-.93,0-1.85-.01-2.8c.01-1.03,.01-2.05,.01-3.11c0-1.07,0-2.14,0-3.24c-.01-3.56-.01-7.12,0-10.68c0-2.47,0-4.93-.01-7.39c0-5.17,0-10.34,.01-15.51c.01-6.64,0-13.28,0-19.92c-.01-5.09-.01-10.18,0-15.26c0-2.45,0-4.9-.01-7.35c0-3.42,.01-6.84,.01-10.25c0-1.03,0-2.05-.01-3.11c.01-.92,.01-1.85,.01-2.8c0-.81,0-1.62,0-2.45C91,583,91,583,92,582c.09-1.49,.11-2.98,.1-4.47c-.01-.9-.01-1.8-.01-2.73c-.01-.94-.02-1.89-.03-2.86c0-.95-.01-1.9-.01-2.88c-.01-2.35-.03-4.71-.05-7.06c.66-.33,1.32-.66,2-1c.29-2.69,.47-5.3,.56-8c.32-7.88,.32-7.88,1.44-9c.23-1.85,.41-3.7,.56-5.56c.09-1.01,.17-2.03,.26-3.07c.03-.39,.03-.39,.18-2.37c.99-.33,1.98-.66,3-1c0-4,0-8,0-12c.66,0,1.32,0,2,0c0-2.97,0-5.94,0-9c.99-.33,1.98-.66,3-1c-.01-.64-.02-1.28-.04-1.93c0-.83-.01-1.66-.02-2.51c-.01-.41-.01-.41-.04-2.49C105,501,105,501,106,500c.23-1.51,.41-3.04,.56-4.56c.09-.83,.17-1.66,.26-2.51c.06-.63,.12-1.27,.18-1.93c.66,0,1.32,0,2,0c-.02-.97-.04-1.94-.06-2.94C109,485,109,485,110,484c.39-1.68,.74-3.37,1.06-5.06c.18-.92,.36-1.84,.54-2.79c.13-.71,.26-1.42,.4-2.15c.66,0,1.32,0,2,0c0-2.31,0-4.62,0-7c.66,0,1.32,0,2,0c-.02-.95-.04-1.9-.06-2.87C116,461,116,461,117,459c.66,0,1.32,0,2,0c0-2.31,0-4.62,0-7c.66,0,1.32,0,2,0c.33-2.31,.66-4.62,1-7c.66,0,1.32,0,2,0c0-1.65,0-3.3,0-5c.66,0,1.32,0,2,0c0-2.31,0-4.62,0-7c.99,0,1.98,0,3,0c0-1.65,0-3.3,0-5c.66,0,1.32,0,2,0c0-1.98,0-3.96,0-6c.99-.33,1.98-.66,3-1c0-1.65,0-3.3,0-5c.66,0,1.32,0,2,0c0-1.65,0-3.3,0-5c.99,0,1.98,0,3,0c0-1.65,0-3.3,0-5c.66,0,1.32,0,2,0c0-1.65,0-3.3,0-5c.99,0,1.98,0,3,0c-.33-1.98-.66-3.96-1-6c.99-.33,1.98-.66,3-1c0-.99,0-1.98,0-3c.66-.33,1.32-.66,2-1c0-.99,0-1.98,0-3c.99,0,1.98,0,3,0c0-1.65,0-3.3,0-5c.66,0,1.32,0,2,0c0-1.65,0-3.3,0-5c.66-.33,1.32-.66,2-1c.63-2.06,.63-2.06,1-4c.66,0,1.32,0,2,0c0-1.65,0-3.3,0-5c.66,0,1.32,0,2,0c.33-1.65,.66-3.3,1-5c.66,0,1.32,0,2,0c0-.66,0-1.32,0-2c.66,0,1.32,0,2,0c-.04-.78-.08-1.57-.12-2.37C165,355,165,355,167,353c.33-.99,.66-1.98,1-3c.66,0,1.32,0,2,0c.27-.97,.54-1.94,.81-2.94c.39-1.01,.79-2.02,1.19-3.06c.99-.33,1.98-.66,3-1c.78-2.33,1.42-4.61,2-7c.99,0,1.98,0,3,0c0-.99,0-1.98,0-3c.66-.33,1.32-.66,2-1c0-1.32,0-2.64,0-4c.99,0,1.98,0,3,0c0-.66,0-1.32,0-2c.66,0,1.32,0,2,0c0-1.65,0-3.3,0-5c.99,0,1.98,0,3,0c0-.99,0-1.98,0-3c.66,0,1.32,0,2,0c0-1.32,0-2.64,0-4c1.38-1.75,1.38-1.75,3-3c.66,0,1.32,0,2,0c0-.99,0-1.98,0-3c.66-.33,1.32-.66,2-1c.33-.99,.66-1.98,1-3c.66,0,1.32,0,2,0c.66-1.65,1.32-3.3,2-5c.66,0,1.32,0,2,0c.33-1.65,.66-3.3,1-5c.66,0,1.32,0,2,0c0-.66,0-1.32,0-2c2.31-2.62,2.31-2.62,5-5c.99,0,1.98,0,3,0c0-.66,0-1.32,0-2c.66,0,1.32,0,2,0c-.33-1.32-.66-2.64-1-4c.99,0,1.98,0,3,0c.33-1.32,.66-2.64,1-4c.66,0,1.32,0,2,0c0-.66,0-1.32,0-2c.66,0,1.32,0,2,0c0-.99,0-1.98,0-3c.99,0,1.98,0,3,0c0-.66,0-1.32,0-2c.66,0,1.32,0,2,0c0-.99,0-1.98,0-3c.99,0,1.98,0,3,0c0-.66,0-1.32,0-2c.66,0,1.32,0,2,0c0-.99,0-1.98,0-3c.66-.33,1.32-.66,2-1c0-.99,0-1.98,0-3c4.22-3,4.22-3,7-3c.05-.3,.05-.3,.31-1.81c.8-2.52,1.61-3.59,3.69-5.19c.99,0,1.98,0,3,0c0-.66,0-1.32,0-2c.99,0,1.98,0,3,0c.1-.58,.21-1.15,.31-1.75c.82-2.66,1.76-4.25,3.69-6.25c1.32,0,2.64,0,4,0c0-.66,0-1.32,0-2c.66,0,1.32,0,2,0c.33-.99,.66-1.98,1-3c1.33-.67,2.67-1.33,4-2c.33-.99,.66-1.98,1-3c2.06-1.19,2.06-1.19,4-2c0-.66,0-1.32,0-2c2.83-3.23,4.74-5.24,9-6c.33-.66,.66-1.32,1-2c.66,0,1.32,0,2,0c0-.66,0-1.32,0-2c1.38-1.62,1.38-1.62,3-3c.66,0,1.32,0,2,0c0-.66,0-1.32,0-2c.99,0,1.98,0,3,0c0-.66,0-1.32,0-2c1.32,0,2.64,0,4,0c0-.66,0-1.32,0-2c.66-.66,1.32-1.32,2-2c.43-.54,.87-1.07,1.31-1.62c2.28-1.86,3.84-1.61,6.69-1.38c0-.99,0-1.98,0-3c.66,0,1.32,0,2,0c0-.66,0-1.32,0-2c.99-.66,1.98-1.32,3-2c0-.33,0-.66,0-1c1.65,0,3.3,0,5,0c0-.66,0-1.32,0-2c.66,0,1.32,0,2,0c0-.99,0-1.98,0-3c1.65,0,3.3,0,5,0c0-.66,0-1.32,0-2c.99,0,1.98,0,3,0c0-.99,0-1.98,0-3c.99,0,1.98,0,3,0c0-.66,0-1.32,0-2c1.32,0,2.64,0,4,0c0-.99,0-1.98,0-3c2.65-1.46,3.89-2,7-2c0-.99,0-1.98,0-3c1.65,0,3.3,0,5,0c0-.66,0-1.32,0-2c3.37-3.37,7.4-4.21,12-5c0-.66,0-1.32,0-2c.99,0,1.98,0,3,0c0-.66,0-1.32,0-2c1.32-.66,2.64-1.32,4-2c0-.33,0-.66,0-1c1.65,0,3.3,0,5,0c0-.66,0-1.32,0-2c1.65,0,3.3,0,5,0c0-.99,0-1.98,0-3c1.32,0,2.64,0,4,0c.33-.66,.66-1.32,1-2c2.31-1.05,4.64-2.06,7-3c0-.66,0-1.32,0-2c1.98,0,3.96,0,6,0c0-.66,0-1.32,0-2c.64-.12,1.28-.25,1.94-.37c.68-.21,1.36-.42,2.06-.63c.33-.66,.66-1.32,1-2c1.98,0,3.96,0,6,0c0-.66,0-1.32,0-2c1.65,0,3.3,0,5,0c0-.99,0-1.98,0-3c1.65,0,3.3,0,5,0c0-.66,0-1.32,0-2c1.65,0,3.3,0,5,0c0-.99,0-1.98,0-3c2.31,0,4.62,0,7,0c0-.66,0-1.32,0-2c1.65,0,3.3,0,5,0c.33-.99,.66-1.98,1-3c3.88-1.39,6.86-2,11-2c0-.66,0-1.32,0-2c4.7-1.87,8.95-3.37,14-4c0-.33,0-.66,0-1c2.64,0,5.28,0,8,0c0-.66,0-1.32,0-2c2.31-.33,4.62-.66,7-1c0-.66,0-1.32,0-2c2.64,0,5.28,0,8,0c0-.66,0-1.32,0-2c2.31-.33,4.62-.66,7-1c0-.66,0-1.32,0-2c3.3,0,6.6,0,10,0c0-.66,0-1.32,0-2c4,0,8,0,12,0c0-.99,0-1.98,0-3c3.3,0,6.6,0,10,0c0-.66,0-1.32,0-2c3.3,0,6.6,0,10,0c.33-.99,.66-1.98,1-3c4,0,8,0,12,0c.33-.66,.66-1.32,1-2c5.67,0,11.33,0,17,0c0-.66,0-1.32,0-2c6.33-.33,12.67-.67,19-1c.33-.66,.66-1.32,1-2ZM564,386c-2.62,.13-5.21,.19-7.82,.21c-.82,.01-1.64,.02-2.49,.03c-2.72,.03-5.44,.05-8.16,.08c-1.88,.02-3.77,.04-5.65,.06c-4.96,.05-9.92,.1-14.89,.15c-5.06,.05-10.12,.11-15.18,.16c-9.94,.11-19.87,.21-29.81,.31c0,.66,0,1.32,0,2c-.63,.01-.63,.01-3.82,.06c-24.78,.4-49.47,.97-74.18,2.94c0,.66,0,1.32,0,2c-7.33,0-14.67,0-22,0c0,.66,0,1.32,0,2c-5.33,0-10.67,0-16,0c-.33,.66-.66,1.32-1,2c-2.5,.41-2.5,.41-5.56,.63c-.51,.03-.51,.03-3.07,.22c-.78,.05-1.56,.1-2.37,.15c0,.66,0,1.32,0,2c-2.31,0-4.62,0-7,0c-.33,.66-.66,1.32-1,2c-2.56,.63-2.56,.63-5,1c0,.66,0,1.32,0,2c-.74,.12-1.48,.25-2.25,.38c-2.55,.57-4.48,1.36-6.75,2.62c0,.66,0,1.32,0,2c-.6,.12-1.2,.25-1.81,.38C326,412,326,412,323,414c0,.66,0,1.32,0,2c-.99,0-1.98,0-3,0c-1.69,1.38-1.69,1.38-3,3c0,.66,0,1.32,0,2c-.66,0-1.32,0-2,0c-1.73,1.68-1.73,1.68-3.62,3.88c-.64,.71-1.27,1.43-1.92,2.17C308,429,308,429,308,431c-.66,0-1.32,0-2,0c0,.66,0,1.32,0,2c-.66,0-1.32,0-2,0c0,1.32,0,2.64,0,4c-.99,0-1.98,0-3,0c0,.99,0,1.98,0,3c-.66,0-1.32,0-2,0c0,1.65,0,3.3,0,5c-.99,0-1.98,0-3,0c0,1.32,0,2.64,0,4c-.33,.17-.33,.17-2,1c0,2.31,0,4.62,0,7c-.66,0-1.32,0-2,0c0,2.31,0,4.62,0,7c-.66,0-1.32,0-2,0c-.33,3.33-.67,6.67-1,10c-.66,0-1.32,0-2,0c0,4.67,0,9.33,0,14c-.66,0-1.32,0-2,0c-.05,1-.1,2-.15,3.03c-.07,1.29-.15,2.58-.22,3.91c-.07,1.29-.14,2.57-.22,3.9c-.13,1.04-.27,2.09-.41,3.16c-.33,.17-.33,.17-2,1c0,7.33,0,14.67,0,22c-.66,0-1.32,0-2,0c-.33,9.33-.67,18.67-1,28c-.66,.33-1.32,.66-2,1c0,18.67,0,37.33,0,56c-.66,0-1.32,0-2,0c0,18.67,0,37.33,0,56c.66,.33,1.32,.66,2,1c0,17.33,0,34.67,0,52c.66,.33,1.32,.66,2,1c.33,10.33,.67,20.67,1,31c.66,0,1.32,0,2,0c0,6.33,0,12.67,0,19c.66,0,1.32,0,2,0c.06,1.22,.12,2.43,.18,3.68c.09,1.59,.17,3.17,.26,4.76c.02,.4,.02,.4,.12,2.43c.33,6.02,.33,6.02,1.44,7.13c.29,3.62,.45,7.25,.62,10.88c.13,1.03,.25,2.06,.38,3.12c.66,.33,1.32,.66,2,1c0,2.64,0,5.28,0,8c.66,.33,1.32,.66,2,1c.63,3.06,.63,3.06,1,6c.66,0,1.32,0,2,0c0,2.64,0,5.28,0,8c.99,0,1.98,0,3,0c-.33,1.65-.66,3.3-1,5c.99,0,1.98,0,3,0c0,1.65,0,3.3,0,5c.66,0,1.32,0,2,0c0,.66,0,1.32,0,2c.99,0,1.98,0,3,0c0,1.65,0,3.3,0,5c.66,0,1.32,0,2,0c.33,.99,.66,1.98,1,3c2.06,1.19,2.06,1.19,4,2c0,.66,0,1.32,0,2c.66,0,1.32,0,2,0c0,.66,0,1.32,0,2c1.38,1.63,1.38,1.63,3,3c.66,0,1.32,0,2,0c0,.66,0,1.32,0,2c2,1.62,2,1.62,4,3c.66-.33,1.32-.66,2-1c0,.99,0,1.98,0,3c.99,0,1.98,0,3,0c0,.66,0,1.32,0,2c2.64,1.41,5.07,2.37,8,3c0,.66,0,1.32,0,2c1.65,0,3.3,0,5,0c0,.99,0,1.98,0,3c1.98,0,3.96,0,6,0c0,.66,0,1.32,0,2c3.3,0,6.6,0,10,0c0,.99,0,1.98,0,3c4,0,8,0,12,0c0,.66,0,1.32,0,2c5,0,10,0,15,0c0,.99,0,1.98,0,3c8,0,16,0,24,0c0,.66,0,1.32,0,2c12,.33,24,.67,36,1c.33,.66,.66,1.32,1,2c17,0,34,0,51,0c0,.66,0,1.32,0,2c.56,0,1.12,.01,1.7,.01c13.63,.11,27.26,.21,40.88,.33c6.59,.05,13.18,.11,19.77,.16c6.36,.04,12.71,.1,19.07,.15c2.43,.02,4.86,.04,7.29,.06c3.39,.02,6.78,.05,10.17,.08c1.02,.01,2.03,.02,3.08,.02c.92,.01,1.84,.02,2.78,.03c.4,.01,.4,.01,2.43,.02C604,890,604,890,605,891c2.02,.12,4.05,.18,6.08,.21c1.3,.02,2.6,.04,3.94,.06c1.43,.01,2.87,.03,4.3,.05c1.45,.02,2.91,.04,4.36,.06c3.84,.05,7.68,.1,11.52,.15c3.91,.05,7.83,.11,11.74,.16c7.69,.11,15.37,.21,23.06,.31c.33-.99,.66-1.98,1-3c36.33,0,72.67,0,109,0c0-.66,0-1.32,0-2c17,0,34,0,51,0c.33-.99,.66-1.98,1-3c12,0,24,0,36,0c0-.66,0-1.32,0-2c8,0,16,0,24,0c0-.99,0-1.98,0-3c5,0,10,0,15,0c0-.66,0-1.32,0-2c4,0,8,0,12,0c0-.99,0-1.98,0-3c3.3,0,6.6,0,10,0c0-.66,0-1.32,0-2c1.98,0,3.96,0,6,0c0-.99,0-1.98,0-3c1.65,0,3.3,0,5,0c0-.66,0-1.32,0-2c.99,0,1.98,0,3,0c0-.99,0-1.98,0-3c1.65,0,3.3,0,5,0c0-.66,0-1.32,0-2c1.32,0,2.64,0,4,0c0-.66,0-1.32,0-2c.99-.33,1.98-.66,3-1c0-.66,0-1.32,0-2c.66,0,1.32,0,2,0c0-.66,0-1.32,0-2c.99-.33,1.98-.66,3-1c0-.66,0-1.32,0-2c.66,0,1.32,0,2,0c0-.66,0-1.32,0-2c.66,0,1.32,0,2,0c0-.66,0-1.32,0-2c.99-.33,1.98-.66,3-1c0-.66,0-1.32,0-2c.66,0,1.32,0,2,0c0-.66,0-1.32,0-2c.99-.33,1.98-.66,3-1c-.33-1.32-.66-2.64-1-4c.99,0,1.98,0,3,0c0-.66,0-1.32,0-2c.66,0,1.32,0,2,0c0-1.65,0-3.3,0-5c.99-.33,1.98-.66,3-1c0-.99,0-1.98,0-3c.66-.33,1.32-.66,2-1c.37-2.33,.7-4.66,1-7c1.63-6.63,1.63-6.63,4-9c.13-3.62,.13-3.62,0-7c.66-.33,1.32-.66,2-1c0-5,0-10,0-15c.66,0,1.32,0,2,0c.05-1.14,.1-2.29,.15-3.46c.07-1.5,.15-2.99,.23-4.48c.03-.75,.06-1.51,.09-2.28c.1-1.94,.31-3.86,.53-5.78c.66-.33,1.32-.66,2-1c0-6.33,0-12.67,0-19c.66,0,1.32,0,2,0c.33-9.67,.67-19.33,1-29c.66-.33,1.32-.66,2-1c0-18.33,0-36.67,0-55c.66,0,1.32,0,2,0c.02-7.28,.04-14.57,.05-21.85c.01-3.38,.01-6.77,.03-10.15c.01-3.88,.01-7.77,.02-11.65c0-.61,0-.61,.01-3.7c0-1.12,0-2.24,0-3.4c0-.49,0-.49,.01-3C1000,610,1000,610,999,609c-.12-1.72-.18-3.44-.21-5.16c-.02-1.1-.04-2.2-.06-3.34c-.01-1.2-.03-2.39-.05-3.63c-.02-1.22-.04-2.44-.06-3.69c-.07-3.92-.12-7.83-.18-11.74c-.05-2.65-.09-5.29-.13-7.94c-.11-6.5-.21-13-.31-19.5c-.66-.33-1.32-.66-2-1c-.33-9.33-.67-18.67-1-28c-.66,0-1.32,0-2,0c0-7.33,0-14.67,0-22c-.66-.33-1.32-.66-2-1c-.41-3.16-.41-3.16-.62-7.06c-.08-1.29-.15-2.58-.23-3.91c-.05-1-.1-2-.15-3.03c-.66,0-1.32,0-2,0c0-4.67,0-9.33,0-14c-.66-.33-1.32-.66-2-1c-.34-1.82-.34-1.82-.5-4.12c-.37-4.2-1.22-7.87-2.5-11.88c-.66,0-1.32,0-2,0c0-2.31,0-4.62,0-7c-.66-.33-1.32-.66-2-1c-.63-2.06-.63-2.06-1-4c-.66,0-1.32,0-2,0c0-1.65,0-3.3,0-5c-.66,0-1.32,0-2,0c0-.66,0-1.32,0-2c-.66-.33-1.32-.66-2-1c-.63-2.06-.63-2.06-1-4c-.66,0-1.32,0-2,0c0-.66,0-1.32,0-2c-.66,0-1.32,0-2,0c-.23-.72-.45-1.44-.69-2.19c-1.57-3.37-3.52-5.37-6.31-7.81c-.66,0-1.32,0-2,0c-.33-.99-.66-1.98-1-3c-.66,0-1.32,0-2,0c0-.66,0-1.32,0-2c-.99,0-1.98,0-3,0c-.33-.99-.66-1.98-1-3c-2-1-3.83-1.49-6-2c0-.66,0-1.32,0-2c-1.32,0-2.64,0-4,0c-.33-.99-.66-1.98-1-3c-1.32,0-2.64,0-4,0c0-.66,0-1.32,0-2c-1.65,0-3.3,0-5,0c-.33-.99-.66-1.98-1-3c-2.31,0-4.62,0-7,0c0-.66,0-1.32,0-2c-.78-.05-1.56-.1-2.37-.15c-1.01-.07-2.02-.15-3.07-.22c-1.01-.07-2.02-.14-3.06-.22c-.41-.06-.41-.06-2.5-.41c-.33-.66-.66-1.32-1-2c-5.67,0-11.33,0-17,0c0-.66,0-1.32,0-2c-7,0-14,0-21,0c0-.66,0-1.32,0-2c-25.97-2.19-51.95-2.6-78-3c0-.66,0-1.32,0-2c-1.05-.01-2.1-.02-3.18-.03c-9.88-.1-19.75-.2-29.62-.31c-5.08-.05-10.16-.11-15.24-.16c-4.89-.04-9.79-.1-14.68-.15c-1.87-.02-3.75-.04-5.62-.06c-2.61-.02-5.22-.05-7.84-.08c-.78-.01-1.56-.02-2.36-.02c-5.35-.08-5.35-.08-6.46-1.19c-1.87-.1-3.75-.13-5.62-.13c-1.22,0-2.44,0-3.7-.01c-1.36,.01-2.72,.01-4.09,.01c-1.43,0-2.85,0-4.28,0c-3.89-.01-7.77-.01-11.66,0c-4.06,0-8.11,0-12.17-.01c-6.82,0-13.63,0-20.45,.01c-7.89,.01-15.78,0-23.68,0c-6.76-.01-13.52-.01-20.29,0c-4.04,0-8.09,0-12.13-.01c-3.8,0-7.61,0-11.41,.01c-1.4,0-2.8,0-4.19,0c-1.91-.01-3.81,0-5.71,0c-.54,0-.54,0-3.24,0C565,385,565,385,564,386Z" fill="#FEFEFE"/>
<path d="M567.06,526.94c.49,.01,.49,.01,2.94,.06c0,.66,0,1.32,0,2c.99,.33,1.98,.66,3,1c0,.66,0,1.32,0,2c1.32,0,2.64,0,4,0c0,.66,0,1.32,0,2c.38,.06,.38,.06,2.31,.38C582,535,582,535,585,537c0,.66,0,1.32,0,2c1.65,0,3.3,0,5,0c0,.99,0,1.98,0,3c1.32-.33,2.64-.66,4-1c.33,.66,.66,1.32,1,2c.99,.33,1.98,.66,3,1c0,.66,0,1.32,0,2c1.32,0,2.64,0,4,0c0,.99,0,1.98,0,3c1.32,0,2.64,0,4,0c0,.66,0,1.32,0,2c1.65,0,3.3,0,5,0c0,.99,0,1.98,0,3c1.32,0,2.64,0,4,0c0,.66,0,1.32,0,2c1.32,0,2.64,0,4,0c0,.99,0,1.98,0,3c1.65,0,3.3,0,5,0c0,.66,0,1.32,0,2c1.32,0,2.64,0,4,0c.33,.66,.66,1.32,1,2c.5,.17,.5,.17,3,1c0,.66,0,1.32,0,2c1.32,0,2.64,0,4,0c0,.99,0,1.98,0,3c1.65,0,3.3,0,5,0c0,.66,0,1.32,0,2c1.32,0,2.64,0,4,0c0,.66,0,1.32,0,2c1.13,.27,2.27,.54,3.44,.81c1.17,.39,2.35,.79,3.56,1.19c.33,.99,.66,1.98,1,3c1.32,0,2.64,0,4,0c0,.66,0,1.32,0,2c.38,.06,.38,.06,2.31,.38C662,581,662,581,665,583c0,.66,0,1.32,0,2c1.65,0,3.3,0,5,0c0,.99,0,1.98,0,3c1.32,0,2.64,0,4,0c0,.66,0,1.32,0,2c1.32,0,2.64,0,4,0c0,.66,0,1.32,0,2c.66,.17,.66,.17,4,1c0,.66,0,1.32,0,2c1.65,0,3.3,0,5,0c.33,.66,.66,1.32,1,2c.99,0,1.98,0,3,0c0,.99,0,1.98,0,3c.99,0,1.98,0,3,0c.66,.66,1.32,1.32,2,2c.99,0,1.98,0,3,0c0,.99,0,1.98,0,3c1.65,0,3.3,0,5,0c0,.66,0,1.32,0,2c1.65,0,3.3,0,5,0c-.33,.99-.66,1.98-1,3c.99,0,1.98,0,3,0c0,.66,0,1.32,0,2c1.65,0,3.3,0,5,0c0,.99,0,1.98,0,3c1.65,0,3.3,0,5,0c0,.66,0,1.32,0,2c1.32,0,2.64,0,4,0c0,.66,0,1.32,0,2c1.13,.27,2.27,.54,3.44,.81c1.17,.39,2.35,.79,3.56,1.19c.33,.99,.66,1.98,1,3c.37,.06,.37,.06,2.25,.38c2.55,.57,4.48,1.36,6.75,2.62c0,.66,0,1.32,0,2c.99,0,1.98,0,3,0c0,.66,0,1.32,0,2c1.65,0,3.3,0,5,0c0,.99,0,1.98,0,3c.99,0,1.98,0,3,0c0,2.64,0,5.28,0,8c-1.32,0-2.64,0-4,0c0,.66,0,1.32,0,2c-1.32,0-2.64,0-4,0c0,.99,0,1.98,0,3c-1.65,0-3.3,0-5,0c0,.66,0,1.32,0,2c-1.32,0-2.64,0-4,0c-.33,.99-.66,1.98-1,3c-.99,0-1.98,0-3,0c0,.66,0,1.32,0,2c-1.32,0-2.64,0-4,0c-.33,.99-.66,1.98-1,3c-1.32,0-2.64,0-4,0c0,.66,0,1.32,0,2c-1.32,0-2.64,0-4,0c0,.66,0,1.32,0,2c-2.95,2.74-3.77,3-8,3c0,.66,0,1.32,0,2c-1.65,0-3.3,0-5,0c0,.66,0,1.32,0,2c-.99,.66-1.98,1.32-3,2c-.31,.27-.31,.27-1.87,1.63c-2.57,1.66-4.13,1.62-7.13,1.37c0,.99,0,1.98,0,3c-2.91,1.26-4.8,2-8,2c-.33,.99-.66,1.98-1,3c-.66,0-1.32,0-2,0c-.33,.66-.66,1.32-1,2c-1.65,0-3.3,0-5,0c0,.66,0,1.32,0,2c-.64,.12-1.28,.25-1.94,.38c-.68,.2-1.36,.41-2.06,.62c-.33,.66-.66,1.32-1,2c-.99,0-1.98,0-3,0c0,.66,0,1.32,0,2c-1.32,0-2.64,0-4,0c0,.99,0,1.98,0,3c-1.65,0-3.3,0-5,0c0,.66,0,1.32,0,2c-.99,.33-1.98,.66-3,1c-.33,.66-.66,1.32-1,2c-1.32,0-2.64,0-4,0c0,.66,0,1.32,0,2c-1.32,0-2.64,0-4,0c0,.99,0,1.98,0,3c-1.65,0-3.3,0-5,0c0,.66,0,1.32,0,2c-.99,0-1.98,0-3,0c-.33,.99-.66,1.98-1,3c-2.98,1.96-4.26,2-8,2c0,.66,0,1.32,0,2c-1.65,0-3.3,0-5,0c0,.66,0,1.32,0,2c-1.19,1.63-1.19,1.63-3,3c-2.69,.19-2.69,.19-5,0c0,.66,0,1.32,0,2c-1.32,0-2.64,0-4,0c0,.99,0,1.98,0,3c-1.65,0-3.3,0-5,0c0,.66,0,1.32,0,2c-.99,0-1.98,0-3,0c0,.99,0,1.98,0,3c-3.13,1.86-5.37,2.2-9,2c-.33,.99-.66,1.98-1,3c-.99,0-1.98,0-3,0c-.33,.66-.66,1.32-1,2c-.99,0-1.98,0-3,0c.33,.99,.66,1.98,1,3c-1.65-.33-3.3-.66-5-1c0,.99,0,1.98,0,3c-1.65,0-3.3,0-5,0c0,.66,0,1.32,0,2c-1.32,.33-2.64,.66-4,1c0,.66,0,1.32,0,2c-1.32,0-2.64,0-4,0c0,.66,0,1.32,0,2c-2.64,.33-5.28,.66-8,1c-1.63-3.27-1.14-6.88-1.13-10.47c0-.89,0-1.78,0-2.69c-.01-2.99,0-5.98,0-8.97c0-2.14,0-4.27,0-6.41c-.01-5.82-.01-11.63,0-17.45c0-6.07,0-12.15-.01-18.22c0-10.2,0-20.4,.01-30.6c.01-11.81,0-23.62,0-35.43c-.01-10.12-.01-20.24,0-30.37c0-6.05,0-12.1-.01-18.16c0-5.69,0-11.38,.01-17.06c0-2.1,0-4.19,0-6.29c-.01-2.84,0-5.69,0-8.54c0-.84,0-1.68,0-2.54c.02-6.78,.02-6.78,4.19-6.86Z" fill="#FEFEFE"/>
<path d="M563,534c1.32,0,2.64,0,4,0c0,69,0,138,0,207c-1.32,.33-2.64,.66-4,1c0-69.33,0-138.67,0-208Z" fill="#EFEFEF"/>
<path d="M192,317c.66,.66,1.32,1.32,2,2c-.19,2.06-.19,2.06-1,4c-.99,.33-1.98,.66-3,1c-.68,2-1.35,4-2,6c-.99,.66-1.98,1.32-3,2c-.07,.41-.07,.41-.44,2.5c-.18,.83-.37,1.65-.56,2.5c-1.32,.68-2.66,1.35-4,2c-.72,1.65-1.38,3.31-2,5c-.52,.5-1.03,.99-1.56,1.5c-1.93,2.01-2.07,3.8-2.44,6.5c-.99,0-1.98,0-3,0c-.69-1.69-.69-1.69-1-4c1.31-2.75,1.31-2.75,3-5c.66,0,1.32,0,2,0c.78-2.33,1.42-4.61,2-7c.99,0,1.98,0,3,0c0-.99,0-1.98,0-3c.66-.33,1.32-.66,2-1c0-1.32,0-2.64,0-4c.99,0,1.98,0,3,0c0-.66,0-1.32,0-2c.66,0,1.32,0,2,0c0-1.65,0-3.3,0-5c.99,0,1.98,0,3,0c0-.99,0-1.98,0-3c.66-.33,1.32-.66,2-1Z" fill="#EEEEEE"/>
<path d="M1135,865c.66,.33,1.32,.66,2,1c-.33,1.32-.66,2.64-1,4c-.66,0-1.32,0-2,0c0,1.65,0,3.3,0,5c-.33,.17-.33,.17-2,1c-.62,2.06-.62,2.06-1,4c-.66,0-1.32,0-2,0c0,1.65,0,3.3,0,5c-.66,0-1.32,0-2,0c-.33,1.65-.66,3.3-1,5c-.66,0-1.32,0-2,0c0,1.32,0,2.64,0,4c-1.32,.33-2.64,.66-4,1c.33-1.65,.66-3.3,1-5c.66,0,1.32,0,2,0c0-1.65,0-3.3,0-5c.66,0,1.32,0,2,0c.33-1.65,.66-3.3,1-5c.66,0,1.32,0,2,0c.12-.72,.25-1.44,.38-2.19c1.17-5.26,3.1-8.71,6.62-12.81Z" fill="#ECECEC"/>
<path d="M1123,387c1.32,0,2.64,0,4,0c0,.99,0,1.98,0,3c.66,.33,1.32,.66,2,1c0,1.65,0,3.3,0,5c.99,.33,1.98,.66,3,1c0,.99,0,1.98,0,3c.66,.33,1.32,.66,2,1c0,1.65,0,3.3,0,5c.99,0,1.98,0,3,0c0,1.32,0,2.64,0,4c.66,.33,1.32,.66,2,1c-.33,1.32-.66,2.64-1,4c-3.04-2.03-3.75-2.73-5-6c0-1.32,0-2.64,0-4c-.99,0-1.98,0-3,0c0-1.65,0-3.3,0-5c-.66,0-1.32,0-2,0c0-1.65,0-3.3,0-5c-.99,0-1.98,0-3,0c0-1.65,0-3.3,0-5c-.66,0-1.32,0-2,0c0-.99,0-1.98,0-3Z" fill="#EAEAEA"/>
<path d="M1081,954c.66,.33,1.32,.66,2,1c-.66,.66-1.32,1.32-2,2c.02,1.13,.04,2.27,.06,3.44c-.06,3.56-.06,3.56-1.37,5.5C1078,967,1078,967,1075,967c-1,3-1,3-1.37,5c-.75,2.39-1.69,3.45-3.63,5c-.66,0-1.32,0-2,0c0,.66,0,1.32,0,2c-1.32,.33-2.64,.66-4,1c.33-1.65,.66-3.3,1-5c.66,0,1.32,0,2,0c0-.66,0-1.32,0-2c.62-.43,1.24-.87,1.88-1.31c2.12-1.69,2.12-1.69,3.06-4.06c1.35-3.35,3.52-5.09,6.06-7.63c1.25-2.75,1.25-2.75,2-5c.33-.33,.66-.66,1-1Z" fill="#EEEEEE"/>
<path d="M303,843c3,0,3,0,5.69,2.38C311,848,311,848,311,850c.66,0,1.32,0,2,0c0,.66,0,1.32,0,2c.99,.33,1.98,.66,3,1c0,.66,0,1.32,0,2c.66,0,1.32,0,2,0c0,.66,0,1.32,0,2c.99,.33,1.98,.66,3,1c-.33,.5-.33,.5-2,3c-1.32-.66-2.64-1.32-4-2c0-.99,0-1.98,0-3c-.64-.27-1.28-.54-1.94-.81C311,854,311,854,310,851c-1.65-.72-3.31-1.38-5-2c-.66-.66-1.32-1.32-2-2c0-1.32,0-2.64,0-4Z" fill="#EAEAEA"/>
<path d="M982,821c.66,.33,1.32,.66,2,1c-2.31,8.4-2.31,8.4-4,12c-.33,.17-.33,.17-2,1c-.68,1.66-1.35,3.33-2,5c-.66,.66-1.32,1.32-2,2c-.7,1.32-1.37,2.65-2,4c-.33-2.64-.66-5.28-1-8c.99,0,1.98,0,3,0c0-.66,0-1.32,0-2c.66,0,1.32,0,2,0c0-1.65,0-3.3,0-5c.66-.33,1.32-.66,2-1c.63-2.06,.63-2.06,1-4c.66,0,1.32,0,2,0c-.33-1.32-.66-2.64-1-4c.66-.33,1.32-.66,2-1Zm-12,25c.66,.33,1.32,.66,2,1c-.66,.33-.66,.33-4,2c.66-.99,1.32-1.98,2-3Z" fill="#EDEDED"/>
<path d="M1096,932c1.32,.66,2.64,1.32,4,2c-.66,1.98-1.32,3.96-2,6c-.99,0-1.98,0-3,0c-.78,2.33-1.42,4.61-2,7c-.99,0-1.98,0-3,0c0,.99,0,1.98,0,3c-1.32,.33-2.64,.66-4,1c.31-2.37,.31-2.37,1-5c.99-.66,1.98-1.32,3-2c.14-.8,.29-1.61,.44-2.44c.71-3.25,1.93-3.67,4.56-5.56c.75-2.19,.75-2.19,1-4Z" fill="#EFEFEF"/>
<path d="M321,187c.99,0,1.98,0,3,0c-.48,4.34-1.65,6.21-5,9c-4.5,3-4.5,3-7,3c0,.66,0,1.32,0,2c-.66,0-1.32,0-2,0c.31-2.87,.31-2.87,1-6c.99-.66,1.98-1.32,3-2c0-.33,0-.66,0-1c1.65,0,3.3,0,5,0c0-.66,0-1.32,0-2c.66,0,1.32,0,2,0c0-.99,0-1.98,0-3Z" fill="#EFEFEE"/>
<path d="M298,436c.66,0,1.32,0,2,0c.33,1.32,.66,2.64,1,4c-.66,0-1.32,0-2,0c0,1.65,0,3.3,0,5c-.99,0-1.98,0-3,0c.33,1.32,.66,2.64,1,4c-.99,.33-1.98,.66-3,1c0,1.32,0,2.64,0,4c-1.32-.33-2.64-.66-4-1c0-.66,0-1.32,0-2c.66-.33,1.32-.66,2-1c.68-2,1.34-4,2-6c1.26-2.7,2.62-5.36,4-8Z" fill="#EEEEEE"/>
<path d="M153,377c1.32,0,2.64,0,4,0c0,1.32,0,2.64,0,4c-.66,0-1.32,0-2,0c-.33,1.65-.66,3.3-1,5c-.66,0-1.32,0-2,0c-.12,.74-.25,1.49-.37,2.25c-.58,2.55-1.37,4.48-2.63,6.75c-.66,0-1.32,0-2,0c.33-2.64,.66-5.28,1-8c.99,0,1.98,0,3,0c0-1.65,0-3.3,0-5c.66,0,1.32,0,2,0c0-1.65,0-3.3,0-5Z" fill="#EBEBEB"/>
<path d="M1111,907c.66,0,1.32,0,2,0c.33,1.32,.66,2.64,1,4c-.66,0-1.32,0-2,0c0,1.65,0,3.3,0,5c-.33,.17-.33,.17-2,1c-.62,2.06-.62,2.06-1,4c-.66,0-1.32,0-2,0c0,.66,0,1.32,0,2c-1.32,.33-2.64,.66-4,1c.51-3.8,1.21-5.43,4-8c1.19-2.19,1.19-2.19,2-4c.66,0,1.32,0,2,0c0-1.65,0-3.3,0-5Z" fill="#F1F1F1"/>
<path d="M109,785c1.32,.33,2.64,.66,4,1c0,2.31,0,4.62,0,7c.66,0,1.32,0,2,0c.33,1.65,.66,3.3,1,5c-1.65,.33-3.3,.66-5,1c-.14-1.13-.29-2.27-.44-3.44C110,792,110,792,109,791c-.04-2-.04-4,0-6Z" fill="#EEEEEE"/>
<path d="M144,873c1.5,1.25,1.5,1.25,3,3c0,1.32,0,2.64,0,4c.66,0,1.32,0,2,0c.33,1.65,.66,3.3,1,5c.66,0,1.32,0,2,0c0,1.65,0,3.3,0,5c-1.32-.33-2.64-.66-4-1c0-.99,0-1.98,0-3c-.66-.33-1.32-.66-2-1c0-1.65,0-3.3,0-5c-.66,0-1.32,0-2,0c-.93-3.01-1.04-3.87,0-7Z" fill="#EBEBEA"/>
<path d="M1142,842c.99,0,1.98,0,3,0c1.06,1.88,1.06,1.88,2,4c-.33,.66-.66,1.32-1,2c-.66,0-1.32,0-2,0c0,1.65,0,3.3,0,5c-.99,0-1.98,0-3,0c.33,1.32,.66,2.64,1,4c-1.32,0-2.64,0-4,0c0-1.32,0-2.64,0-4c.66,0,1.32,0,2,0c.07-.37,.07-.37,.44-2.25c.34-1.65,.7-3.3,1.12-4.94C1142,844,1142,844,1142,842Z" fill="#EFEFEE"/>
<path d="M143,397c1.32,0,2.64,0,4,0c0,.99,0,1.98,0,3c-.66,0-1.32,0-2,0c0,1.65,0,3.3,0,5c-.66,0-1.32,0-2,0c-.33,1.65-.66,3.3-1,5c-.66,0-1.32,0-2,0c0,1.65,0,3.3,0,5c-.33,0-.66,0-1,0c0-2.97,0-5.94,0-9c.66,0,1.32,0,2,0c0-1.65,0-3.3,0-5c.99,0,1.98,0,3,0c-.33-1.32-.66-2.64-1-4Z" fill="#ECECEC"/>
<path d="M1162,785c.99,0,1.98,0,3,0c.33,1.98,.66,3.96,1,6c-.99,.33-1.98,.66-3,1c0,1.98,0,3.96,0,6c-1.32,0-2.64,0-4,0c.88-4.87,.88-4.87,2-6c.37-2.33,.7-4.66,1-7Z" fill="#EEEEEE"/>
<path d="M292,821c.66,.33,1.32,.66,2,1c0,1.32,0,2.64,0,4c.99,0,1.98,0,3,0c-.33,1.65-.66,3.3-1,5c.99,0,1.98,0,3,0c0,1.65,0,3.3,0,5c-1.32-.66-2.64-1.32-4-2c0-1.32,0-2.64,0-4c-.66,0-1.32,0-2,0c0-1.65,0-3.3,0-5c-.99,0-1.98,0-3,0c0-.99,0-1.98,0-3c.66-.33,1.32-.66,2-1Z" fill="#ECECEC"/>
<path d="M1177,549c.99,0,1.98,0,3,0c0,3.67,0,7.33,0,11c-1.32,0-2.64,0-4,0c-.03-1.46-.05-2.92-.06-4.37c-.01-.82-.03-1.63-.04-2.47c.1-2.16,.1-2.16,1.1-4.16Z" fill="#ECECEC"/>
<path d="M119,455c.99,0,1.98,0,3,0c.33,.99,.66,1.98,1,3c-.99,.33-1.98,.66-3,1c.33,1.98,.66,3.96,1,6c-1.65,.33-3.3,.66-5,1c.33-2.31,.66-4.62,1-7c.66,0,1.32,0,2,0c0-1.32,0-2.64,0-4Z" fill="#EDEDED"/>
<path d="M356,165c.66,0,1.32,0,2,0c.33,.99,.66,1.98,1,3c-3.02,3.48-5.57,4.79-10,6c.19-2.87,.19-2.87,1-6c2.5-1.31,2.5-1.31,5-2c.33-.33,.66-.66,1-1Z" fill="#EFEFEF"/>
<path d="M991,774c.66,0,1.32,0,2,0c.33,3.67,.67,7.33,1,11c-1.32,.33-2.64,.66-4,1c-.03-1.81-.05-3.62-.06-5.44c-.01-1.01-.03-2.02-.04-3.06c.1-2.5,.1-2.5,1.1-3.5Z" fill="#ECECEC"/>
<path d="M1116,372c.99,0,1.98,0,3,0c0,1.65,0,3.3,0,5c.99,0,1.98,0,3,0c0,1.65,0,3.3,0,5c.66,0,1.32,0,2,0c0,.99,0,1.98,0,3c-.99,0-1.98,0-3,0c-.33-.99-.66-1.98-1-3c-.66-.33-1.32-.66-2-1c0-1.65,0-3.3,0-5c-.66,0-1.32,0-2,0c0-1.32,0-2.64,0-4Z" fill="#EAEAEA"/>
<path d="M1092,333c.99,0,1.98,0,3,0c0,.99,0,1.98,0,3c.99,0,1.98,0,3,0c1.43,2.35,2.09,3.48,1.63,6.25c-.21,.58-.42,1.16-.63,1.75c-.99-.33-1.98-.66-3-1c-.68-1.66-1.35-3.33-2-5c-.99-.66-1.98-1.32-3-2c.33-.99,.66-1.98,1-3Z" fill="#ECECEC"/>
<path d="M1178,729c0,3.67,0,7.33,0,11c-.99,0-1.98,0-3,0c-1.52-3.04-1.24-5.65-1-9c3-2,3-2,4-2Z" fill="#ECECEC"/>
<path d="M1150,829c.66,.33,1.32,.66,2,1c-.33,1.98-.66,3.96-1,6c-.66,0-1.32,0-2,0c0,1.32,0,2.64,0,4c-1.32,0-2.64,0-4,0c0-1.32,0-2.64,0-4c.66-.33,1.32-.66,2-1c.7-1.65,1.37-3.32,2-5c.33-.33,.66-.66,1-1Z" fill="#EEEEEE"/>
<path d="M747,631c.99,0,1.98,0,3,0c0,.99,0,1.98,0,3c.99,0,1.98,0,3,0c0,2.64,0,5.28,0,8c-.99,0-1.98,0-3,0c-.12-.97-.25-1.94-.37-2.94c-.21-1.01-.42-2.02-.63-3.06c-.66-.33-1.32-.66-2-1c0-1.32,0-2.64,0-4Z" fill="#E4E4E4"/>
<path d="M110,496c.33,.99,.66,1.98,1,3c-.99,.33-1.98,.66-3,1c.33,2.64,.66,5.28,1,8c-1.32,.33-2.64,.66-4,1c-.37-7.5-.37-7.5,1.38-9.87c.53-.38,1.07-.75,1.62-1.13c.66-.66,1.32-1.32,2-2Z" fill="#EEEEEE"/>
<path d="M618,713c.99,0,1.98,0,3,0c0,1.32,0,2.64,0,4c-.99,0-1.98,0-3,0c0,.66,0,1.32,0,2c-1.32,0-2.64,0-4,0c0,.99,0,1.98,0,3c-.99,0-1.98,0-3,0c0-1.32,0-2.64,0-4c.97-.45,1.94-.91,2.94-1.37C617,715,617,715,618,713Z" fill="#F0F0F0"/>
<path d="M640,701c.99,.33,1.98,.66,3,1c0,.99,0,1.98,0,3c-.99,0-1.98,0-3,0c-.33,.99-.66,1.98-1,3c-2.56,1.19-2.56,1.19-5,2c.33-2.31,.66-4.62,1-7c.66,.17,.66,.17,4,1c.33-.99,.66-1.98,1-3Z" fill="#EFEFEF"/>
<path d="M1152,455c1.32,0,2.64,0,4,0c0,1.32,0,2.64,0,4c.66,0,1.32,0,2,0c0,2.31,0,4.62,0,7c-1.32-.66-2.64-1.32-4-2c.33-1.65,.66-3.3,1-5c-.99-.33-1.98-.66-3-1c0-.99,0-1.98,0-3Z" fill="#EDEDED"/>
<path d="M719,615c.66,0,1.32,0,2,0c0,.66,0,1.32,0,2c1.32,0,2.64,0,4,0c0,.66,0,1.32,0,2c.66,0,1.32,0,2,0c0,1.32,0,2.64,0,4c-.66,0-1.32,0-2,0c-.66-.99-1.32-1.98-2-3c-.99,.33-1.98,.66-3,1c-.66-1.65-1.32-3.3-2-5c.33-.33,.66-.66,1-1Z" fill="#EFEFEF"/>
<path d="M1174,536c1.32,0,2.64,0,4,0c0,2.31,0,4.62,0,7c-.66,.33-.66,.33-4,2c0-2.97,0-5.94,0-9Z" fill="#ECECEB"/>
<path d="M161,907c.99,0,1.98,0,3,0c1.24,2.97,2.3,5.85,3,9c-.33,.17-.33,.17-2,1c-.99-.66-1.98-1.32-3-2c.33-1.32,.66-2.64,1-4c-.66,0-1.32,0-2,0c0-1.32,0-2.64,0-4Z" fill="#ECECEC"/>
<path d="M124,822c.33,0,.66,0,1,0c0,2.31,0,4.62,0,7c.99,.33,1.98,.66,3,1c0,.66,0,1.32,0,2c-1.32,0-2.64,0-4,0c0-.99,0-1.98,0-3c-.99-.33-1.98-.66-3-1c.57-2.87,.86-3.86,3-6Z" fill="#ECECEC"/>
<path d="M988,475c1.32,.33,2.64,.66,4,1c0,1.98,0,3.96,0,6c-.66,.33-.66,.33-4,2c0-2.97,0-5.94,0-9Z" fill="#ECECEC"/>
<path d="M287,474c0,2.97,0,5.94,0,9c-.99,.33-1.98,.66-3,1c-.33-2.64-.66-5.28-1-8c3-2,3-2,4-2Z" fill="#ECECEC"/>
<path d="M168,920c1.81,.06,1.81,.06,4,1c1.75,3.56,1.75,3.56,3,7c-.99,.33-1.98,.66-3,1c-.66-.33-1.32-.66-2-1c0-1.65,0-3.3,0-5c-.66,0-1.32,0-2,0c0-.99,0-1.98,0-3Z" fill="#ECECEC"/>
<path d="M549,95c2.64,0,5.28,0,8,0c0,1.32,0,2.64,0,4c-2.31,0-4.62,0-7,0c-.33-1.32-.66-2.64-1-4Z" fill="#EBEBEB"/>
<path d="M701,93c2.64,0,5.28,0,8,0c-.33,1.32-.66,2.64-1,4c-5.75,.13-5.75,.13-8-1c.33-.99,.66-1.98,1-3Z" fill="#ECECEB"/>
<path d="M130,436c0,.99,0,1.98,0,3c-.66,0-1.32,0-2,0c0,1.65,0,3.3,0,5c-1.32,0-2.64,0-4,0c0-1.32,0-2.64,0-4c.66,0,1.32,0,2,0c0-.99,0-1.98,0-3c2-1,2-1,4-1Z" fill="#ECECEC"/>
<path d="M731,1174c1.98,0,3.96,0,6,0c0,1.32,0,2.64,0,4c-2.64,0-5.28,0-8,0c.66-1.32,1.32-2.64,2-4Z" fill="#ECECEC"/>
<path d="M357,877c2.64,0,5.28,0,8,0c-.66,1.32-1.32,2.64-2,4c-1.98,0-3.96,0-6,0c0-1.32,0-2.64,0-4Z" fill="#EDEDED"/>
<path d="M1173,744c.66,0,1.32,0,2,0c0,2.97,0,5.94,0,9c-.99,.33-1.98,.66-3,1c-1.31-3.94-.24-6.12,1-10Z" fill="#ECECEC"/>
<path d="M97,731c.99,0,1.98,0,3,0c.33,2.31,.66,4.62,1,7c-1.32,.33-2.64,.66-4,1c0-2.64,0-5.28,0-8Z" fill="#EBEBEB"/>
<path d="M97,537c1.32,0,2.64,0,4,0c0,2.64,0,5.28,0,8c-1.32-.66-2.64-1.32-4-2c0-1.98,0-3.96,0-6Z" fill="#EBEBEB"/>
<path d="M389,146c1.98,0,3.96,0,6,0c0,1.32,0,2.64,0,4c-2.31,.66-4.62,1.32-7,2c.33-1.98,.66-3.96,1-6Z" fill="#F0F0EF"/>
<path d="M522,100c2.64,0,5.28,0,8,0c-.33,1.32-.66,2.64-1,4c-2.31-.33-4.62-.66-7-1c0-.99,0-1.98,0-3Z" fill="#ECECEC"/>
<path d="M718,95c2.64,0,5.28,0,8,0c-.66,1.32-1.32,2.64-2,4c-1.98,0-3.96,0-6,0c0-1.32,0-2.64,0-4Z" fill="#EAEAEA"/>
<path d="M1165,490c.99,.33,1.98,.66,3,1c0,1.98,0,3.96,0,6c-.66,.33-.66,.33-4,2c.33-2.97,.66-5.94,1-9Z" fill="#EEEEEF"/>
<path d="M307,200c-.69,2.88-.69,2.88-2,6c-2.62,1.38-2.62,1.38-5,2c-.33-.99-.66-1.98-1-3c.66-.66,1.32-1.32,2-2c.47-.54,.95-1.07,1.44-1.62C304,200,304,200,307,200Z" fill="#ECECEC"/>
<path d="M968,1072c.33,1.32,.66,2.64,1,4c-.78,.45-1.57,.91-2.37,1.38C964,1079,964,1079,962,1081c.61-5.49,.61-5.49,2.44-7.87C966,1072,966,1072,968,1072Z" fill="#EEEEEE"/>
<path d="M191,953c.66,0,1.32,0,2,0c1.69,2.31,1.69,2.31,3,5c-.33,.99-.66,1.98-1,3c-.99-.33-1.98-.66-3-1c0-.99,0-1.98,0-3c-.66,0-1.32,0-2,0c.33-1.32,.66-2.64,1-4Z" fill="#ECECEC"/>
<path d="M538,1174c1.98,0,3.96,0,6,0c0,1.32,0,2.64,0,4c-2.31,0-4.62,0-7,0c.33-1.32,.66-2.64,1-4Z" fill="#ECECEB"/>
<path d="M534,98c2.97,0,5.94,0,9,0c-.33,.5-.33,.5-2,3c-3.62,.69-3.62,.69-7,1c0-1.32,0-2.64,0-4Z" fill="#ECECEC"/>
<path d="M504,1167c1.65,0,3.3,0,5,0c0,1.32,0,2.64,0,4c-1.98,0-3.96,0-6,0c.33-1.32,.66-2.64,1-4Z" fill="#ECECEC"/>
<path d="M800,1157c1.65,0,3.3,0,5,0c0,1.65,0,3.3,0,5c-1.65,0-3.3,0-5,0c0-1.65,0-3.3,0-5Z" fill="#EDEDED"/>
<path d="M470,1157c1.65,0,3.3,0,5,0c0,1.65,0,3.3,0,5c-1.65,0-3.3,0-5,0c0-1.65,0-3.3,0-5Z" fill="#EDEDED"/>
<path d="M988,791c.99,.33,1.98,.66,3,1c.33,1.98,.66,3.96,1,6c-1.32,.33-2.64,.66-4,1c0-2.64,0-5.28,0-8Z" fill="#EAEAEA"/>
<path d="M1167,502c.99,0,1.98,0,3,0c0,2.31,0,4.62,0,7c-.99,0-1.98,0-3,0c-.38-1.99-.71-3.99-1-6c.33-.33,.66-.66,1-1Z" fill="#EEEEEE"/>
<path d="M914,395c1.65,0,3.3,0,5,0c.33,1.32,.66,2.64,1,4c-2.31,0-4.62,0-7,0c.33-1.32,.66-2.64,1-4Z" fill="#EEEEEE"/>
<path d="M197,308c1.32,.33,2.64,.66,4,1c-.33,1.32-.66,2.64-1,4c-1.65,.33-3.3,.66-5,1c0-.99,0-1.98,0-3c.66,0,1.32,0,2,0c0-.99,0-1.98,0-3Z" fill="#ECECEC"/>
<path d="M206,298c.66,.33,1.32,.66,2,1c-.61,2.96-1.25,4.38-3,7c-.66,0-1.32,0-2,0c.26-2.34,.59-4.68,1-7c.66-.33,1.32-.66,2-1Z" fill="#EBEBEB"/>
<path d="M951,187c.99,0,1.98,0,3,0c0,.99,0,1.98,0,3c.66,0,1.32,0,2,0c.33,.99,.66,1.98,1,3c-1.32,.33-2.64,.66-4,1c-2-3-2-3-2-7Z" fill="#ECECEC"/>
<path d="M733,98c2.64,0,5.28,0,8,0c0,.99,0,1.98,0,3c-2.64,0-5.28,0-8,0c0-.99,0-1.98,0-3Z" fill="#EBEBEB"/>
<path d="M956,1079c.66,0,1.32,0,2,0c.69,1.81,.69,1.81,1,4c-1.25,1.75-1.25,1.75-3,3c-.99,0-1.98,0-3,0c0-1.32,0-2.64,0-4c.66,0,1.32,0,2,0c.33-.99,.66-1.98,1-3Z" fill="#EDEDED"/>
<path d="M263,1034c.33,.66,.66,1.32,1,2c.66,0,1.32,0,2,0c0,.66,0,1.32,0,2c.66,0,1.32,0,2,0c0,1.32,0,2.64,0,4c-.99,0-1.98,0-3,0c0-.66,0-1.32,0-2c-.66,0-1.32,0-2,0c0-1.98,0-3.96,0-6Z" fill="#E9E9E8"/>
<path d="M1075,308c.99,.33,1.98,.66,3,1c0,.66,0,1.32,0,2c.66,0,1.32,0,2,0c-.33,1.32-.66,2.64-1,4c-.66,0-1.32,0-2,0c-1.69-1.81-1.69-1.81-3-4c.33-.99,.66-1.98,1-3Z" fill="#ECECEB"/>
<path d="M777,107c1.98,0,3.96,0,6,0c0,1.32,0,2.64,0,4c-1.98,0-3.96,0-6,0c0-1.32,0-2.64,0-4Z" fill="#EDEDEC"/>
<path d="M512,102c1.65,0,3.3,0,5,0c0,1.32,0,2.64,0,4c-.99,.33-1.98,.66-3,1c-.66-.33-1.32-.66-2-1c0-1.32,0-2.64,0-4Z" fill="#ECECEC"/>
<path d="M515,1169c1.65,0,3.3,0,5,0c.33,1.32,.66,2.64,1,4c-2.31,0-4.62,0-7,0c.33-1.32,.66-2.64,1-4Z" fill="#ECEDEC"/>
<path d="M1111,907c.66,0,1.32,0,2,0c.33,1.32,.66,2.64,1,4c-.66,0-1.32,0-2,0c0,1.65,0,3.3,0,5c-.99,0-1.98,0-3,0c0-1.32,0-2.64,0-4c.66,0,1.32,0,2,0c0-1.65,0-3.3,0-5Z" fill="#EAEAEA"/>
<path d="M107,776c1.32,0,2.64,0,4,0c0,1.65,0,3.3,0,5c-1.32,.33-2.64,.66-4,1c0-1.98,0-3.96,0-6Z" fill="#EDEDED"/>
<path d="M1162,483c1.32,.33,2.64,.66,4,1c0,1.65,0,3.3,0,5c-.33,.17-.33,.17-2,1c-.66-.33-1.32-.66-2-1c0-1.98,0-3.96,0-6Z" fill="#EBEBEB"/>
<path d="M356,395c1.65,0,3.3,0,5,0c0,1.32,0,2.64,0,4c-1.98,0-3.96,0-6,0c.33-1.32,.66-2.64,1-4Z" fill="#EDEDED"/>
<path d="M336,177c.99,0,1.98,0,3,0c-.25,2.38-.25,2.38-1,5c-2.06,1.31-2.06,1.31-4,2c0-1.32,0-2.64,0-4c.66,0,1.32,0,2,0c0-.99,0-1.98,0-3Z" fill="#EEEEEE"/>
<path d="M421,131c1.65,0,3.3,0,5,0c0,1.32,0,2.64,0,4c-1.32,0-2.64,0-4,0c-.33,.66-.66,1.32-1,2c0-1.98,0-3.96,0-6Z" fill="#F0F0EF"/>
<path d="M758,102c1.65,0,3.3,0,5,0c-.33,1.65-.66,3.3-1,5c-1.65-.33-3.3-.66-5-1c.33-1.32,.66-2.64,1-4Z" fill="#ECECEC"/>
<path d="M339,1094c.66,0,1.32,0,2,0c0,.66,0,1.32,0,2c.99,.33,1.98,.66,3,1c0,1.32,0,2.64,0,4c-.99,0-1.98,0-3,0c0-.99,0-1.98,0-3c-.66,0-1.32,0-2,0c0-1.32,0-2.64,0-4Z" fill="#EEEEEE"/>
<path d="M206,973c1.32,.99,2.64,1.98,4,3c-.33,1.32-.66,2.64-1,4c-1.65-1.65-3.3-3.3-5-5c.66-.66,1.32-1.32,2-2Z" fill="#E9E9E9"/>
<path d="M1173,523c.66,0,1.32,0,2,0c0,2.31,0,4.62,0,7c-1.32-.33-2.64-.66-4-1c.88-4.87,.88-4.87,2-6Z" fill="#EDEDED"/>
<path d="M111,483c.66,.66,1.32,1.32,2,2c-.37,2.63-.37,2.63-1,5c-.99,0-1.98,0-3,0c-.12-2.37-.12-2.37,0-5c.66-.66,1.32-1.32,2-2Z" fill="#EBEBEB"/>
<path d="M329,182c.99,0,1.98,0,3,0c-.31,2.38-.31,2.38-1,5c-.49,.33-.49,.33-3,2c-.33-1.32-.66-2.64-1-4c.66,0,1.32,0,2,0c0-.99,0-1.98,0-3Z" fill="#EEEEED"/>
<path d="M927,1099c.66,0,1.32,0,2,0c-.58,2.39-1.22,4.67-2,7c-.99-.33-1.98-.66-3-1c.57-2.87,.86-3.86,3-6Z" fill="#EEEEEE"/>
<path d="M929,172c.99,.33,1.98,.66,3,1c0,.66,0,1.32,0,2c.66,0,1.32,0,2,0c-.33,1.32-.66,2.64-1,4c-2-1.25-2-1.25-4-3c0-1.32,0-2.64,0-4Z" fill="#ECECEC"/>
<path d="M343,172c.99,0,1.98,0,3,0c-.31,2.38-.31,2.38-1,5c-.49,.33-.49,.33-3,2c-.33-1.32-.66-2.64-1-4c.66,0,1.32,0,2,0c0-.99,0-1.98,0-3Z" fill="#ECECEC"/>
<path d="M493,107c1.65,0,3.3,0,5,0c-.33,1.32-.66,2.64-1,4c-1.65-.33-3.3-.66-5-1c.33-.99,.66-1.98,1-3Z" fill="#EBEBEB"/>
<path d="M815,1152c1.32,0,2.64,0,4,0c0,1.65,0,3.3,0,5c-1.32,0-2.64,0-4,0c0-1.65,0-3.3,0-5Z" fill="#EEEEEE"/>
<path d="M456,1152c1.32,0,2.64,0,4,0c0,1.65,0,3.3,0,5c-1.32,0-2.64,0-4,0c0-1.65,0-3.3,0-5Z" fill="#EEEEEE"/>
<path d="M822,1150c1.65,0,3.3,0,5,0c0,1.32,0,2.64,0,4c-1.65,0-3.3,0-5,0c0-1.32,0-2.64,0-4Z" fill="#EEEEED"/>
<path d="M346,1099c.99,.33,1.98,.66,3,1c0,.66,0,1.32,0,2c.66,0,1.32,0,2,0c0,.99,0,1.98,0,3c-.99,.33-1.98,.66-3,1c0-.99,0-1.98,0-3c-.66,0-1.32,0-2,0c0-1.32,0-2.64,0-4Z" fill="#EEEEEE"/>
<path d="M325,1085c.66,0,1.32,0,2,0c0,.66,0,1.32,0,2c.66,0,1.32,0,2,0c.33,1.65,.66,3.3,1,5c-1.32-.33-2.64-.66-4-1c-.33-1.98-.66-3.96-1-6Z" fill="#ECECEC"/>
<path d="M317,1080c.83,.33,.83,.33,5,2c0,1.32,0,2.64,0,4c-.99,0-1.98,0-3,0c0-.99,0-1.98,0-3c-.99-.33-1.98-.66-3-1c.33-.66,.66-1.32,1-2Z" fill="#ECECEC"/>
<path d="M308,1072c1.32,.99,2.64,1.98,4,3c-.33,.99-.66,1.98-1,3c-.66,0-1.32,0-2,0c0-.66,0-1.32,0-2c-.99,0-1.98,0-3,0c.66-1.32,1.32-2.64,2-4Z" fill="#EDEDED"/>
<path d="M324,862c.99,0,1.98,0,3,0c0,.66,0,1.32,0,2c.66,0,1.32,0,2,0c0,1.32,0,2.64,0,4c-.66,0-1.32,0-2,0c0-.66,0-1.32,0-2c-.99,0-1.98,0-3,0c0-1.32,0-2.64,0-4Z" fill="#EDEDED"/>
<path d="M105,766c.99,0,1.98,0,3,0c.33,1.65,.66,3.3,1,5c-1.32,.33-2.64,.66-4,1c0-1.98,0-3.96,0-6Z" fill="#EDEDED"/>
<path d="M681,677c.66,0,1.32,0,2,0c.33,.99,.66,1.98,1,3c-.33,.5-.33,.5-2,3c-.99,0-1.98,0-3,0c.88-4.87,.88-4.87,2-6Z" fill="#EFEFEF"/>
<path d="M936,177c.99,0,1.98,0,3,0c0,.99,0,1.98,0,3c.66,0,1.32,0,2,0c-.33,1.32-.66,2.64-1,4c-2-1.25-2-1.25-4-3c0-1.32,0-2.64,0-4Z" fill="#EDEDED"/>
<path d="M486,1162c1.65,0,3.3,0,5,0c0,1.32,0,2.64,0,4c-1.65,0-3.3,0-5,0c0-1.32,0-2.64,0-4Z" fill="#EDEDED"/>
<path d="M935,1094c1,3,1,3,.06,5.19c-.17,.3-.17,.3-1.06,1.81c-.99,0-1.98,0-3,0c0-1.32,0-2.64,0-4c2-1.75,2-1.75,4-3Z" fill="#EDEDED"/>
<path d="M949,1084c.93,3.01,1.04,3.87,0,7c-.99,0-1.98,0-3,0c.75-4.75,.75-4.75,3-7Z" fill="#ECECEC"/>
<path d="M347,397c1.32,0,2.64,0,4,0c0,1.32,0,2.64,0,4c-1.65,0-3.3,0-5,0c.33-1.32,.66-2.64,1-4Z" fill="#EFEFEF"/>
<path d="M943,182c1.32,.33,2.64,.66,4,1c.33,1.65,.66,3.3,1,5c-.66,0-1.32,0-2,0c0-.66,0-1.32,0-2c-.99-.33-1.98-.66-3-1c0-.99,0-1.98,0-3Z" fill="#EBEBEB"/>
<path d="M784,1162c1.65,0,3.3,0,5,0c-.33,1.32-.66,2.64-1,4c-1.32,0-2.64,0-4,0c0-1.32,0-2.64,0-4Z" fill="#EDEDED"/>
<path d="M808,1155c1.32,0,2.64,0,4,0c.33,1.32,.66,2.64,1,4c-1.65,0-3.3,0-5,0c0-1.32,0-2.64,0-4Z" fill="#EDEDED"/>
<path d="M117,809c.66,.17,.66,.17,4,1c0,.99,0,1.98,0,3c-1.65,0-3.3,0-5,0c.33-1.32,.66-2.64,1-4Z" fill="#EDEDED"/>
<path d="M1169,756c1.32,.33,2.64,.66,4,1c0,1.32,0,2.64,0,4c-1.32-.33-2.64-.66-4-1c0-1.32,0-2.64,0-4Z" fill="#EBEBEB"/>
<path d="M101,524c.66,0,1.32,0,2,0c.33,1.32,.66,2.64,1,4c-.66,.33-.66,.33-4,2c-.04-1.67-.04-3.33,0-5c.33-.33,.66-.66,1-1Z" fill="#ECECEB"/>
<path d="M786,110c1.98,0,3.96,0,6,0c-1.31,2-1.31,2-3,4c-.99,0-1.98,0-3,0c0-1.32,0-2.64,0-4Z" fill="#ECECEC"/>
<path d="M848,1140c.99,0,1.98,0,3,0c.33,1.32,.66,2.64,1,4c-1.65,0-3.3,0-5,0c.33-1.32,.66-2.64,1-4Z" fill="#EFEFEF"/>
<path d="M922,874c1.65,0,3.3,0,5,0c-.33,1.32-.66,2.64-1,4c-.99,0-1.98,0-3,0c-.33-1.32-.66-2.64-1-4Z" fill="#ECECEC"/>
<path d="M961,195c.99,0,1.98,0,3,0c.33,1.98,.66,3.96,1,6c-.66,0-1.32,0-2,0c-2-3-2-3-2-6Z" fill="#EAEAEA"/>
<path d="M768,105c1.65,0,3.3,0,5,0c-.33,1.32-.66,2.64-1,4c-1.32-.33-2.64-.66-4-1c0-.99,0-1.98,0-3Z" fill="#ECECEC"/>
</svg>
